<svg width="19" height="22" viewBox="0 0 19 22" fill="none" xmlns="http://www.w3.org/2000/svg">
<path d="M12.2098 19.7098C12.5998 19.3198 12.5998 18.6898 12.2098 18.2998C11.8198 17.9098 11.1898 17.9098 10.7998 18.2998C10.4098 18.6898 10.4098 19.3198 10.7998 19.7098C11.1798 20.0998 11.8198 20.0998 12.2098 19.7098ZM7.24982 4.49981L7.88982 2.60981L5.96982 3.23981L7.24982 4.49981ZM3.35982 3.50981C2.81982 2.97981 3.03982 2.07981 3.75982 1.83981L9.17982 0.0598102C9.97983 -0.20019 10.7398 0.54981 10.4698 1.33981L8.65982 6.67981C8.41982 7.38981 7.50982 7.60981 6.96982 7.07981L3.35982 3.50981ZM13.6198 21.1198C12.4498 22.2898 10.5498 22.2898 9.37982 21.1198C8.20982 19.9498 8.20982 18.0498 9.37982 16.8798C10.5498 15.7098 12.4498 15.7098 13.6198 16.8798C14.7898 18.0498 14.7898 19.9498 13.6198 21.1198ZM2.99982 6.00981C3.39982 5.61981 4.04982 5.61981 4.43982 6.00981C4.83982 6.39981 4.83982 7.03981 4.43982 7.43981L2.63982 9.21981C1.83982 10.0098 1.83982 11.4498 2.63982 12.2398C3.48982 13.0798 5.05982 13.2398 6.06982 12.5698L11.7998 8.76981C13.6098 7.56981 16.2698 7.82981 17.8098 9.34981C19.3998 10.9298 19.3998 13.3498 17.8098 14.9198L16.3598 16.3498C15.9598 16.7398 15.3098 16.7398 14.9198 16.3498C14.5198 15.9598 14.5198 15.3198 14.9198 14.9198L16.3698 13.4898C17.1698 12.6998 17.1698 11.5598 16.3698 10.7698C15.5198 9.92981 13.9398 9.77981 12.9398 10.4398L7.20982 14.2398C5.38982 15.4398 2.73982 15.1798 1.19982 13.6598C-0.390176 12.0898 -0.390176 9.36981 1.19982 7.78981L2.99982 6.00981Z" fill="#EC008C"/>
</svg>
