<svg width="35" height="16" viewBox="0 0 35 16" fill="none" xmlns="http://www.w3.org/2000/svg">
<path d="M27.94 6L31 9.05333L34.06 6L35 6.94L31 10.94L27 6.94L27.94 6Z" fill="#515151"/>
<path d="M8 15C11.866 15 15 11.866 15 8C15 4.13401 11.866 1 8 1C4.13401 1 1 4.13401 1 8C1 11.866 4.13401 15 8 15Z" stroke="#515151" stroke-linecap="round" stroke-linejoin="round"/>
<path d="M1.67334 5H14.3267" stroke="#515151" stroke-linecap="round" stroke-linejoin="round"/>
<path d="M8 15V1" stroke="#515151" stroke-linecap="round" stroke-linejoin="round"/>
<path d="M1.67334 11H14.3267" stroke="#515151" stroke-linecap="round" stroke-linejoin="round"/>
<path d="M7.99984 15C10.3931 15 12.3332 11.866 12.3332 8C12.3332 4.13401 10.3931 1 7.99984 1C5.6066 1 3.6665 4.13401 3.6665 8C3.6665 11.866 5.6066 15 7.99984 15Z" stroke="#515151" stroke-linecap="round" stroke-linejoin="round"/>
</svg>
