<svg width="24" height="27" viewBox="0 0 24 27" fill="none" xmlns="http://www.w3.org/2000/svg">
<path d="M9.7146 17.6095L5.71682 13.6117C5.19711 13.092 5.19711 12.2525 5.71682 11.7328C6.23654 11.2131 7.07607 11.2131 7.59578 11.7328L10.6607 14.7978L17.0439 8.38798C17.5636 7.86827 18.4031 7.86827 18.9228 8.38798C19.4425 8.90769 19.4425 9.74722 18.9228 10.2669L11.5936 17.5962C11.0872 18.1292 10.2343 18.1292 9.7146 17.6095ZM4.30428 3.35078C3.71793 3.27082 3.19822 3.11091 2.66519 3.01763C2.66519 3.52402 2.67851 8.92102 2.66519 13.3319C2.67851 16.4502 4.23765 19.1553 6.84953 21.3141C7.88895 22.167 9.03498 22.8733 10.1277 23.393C10.9939 23.7661 11.7401 23.9926 11.9933 23.9926C12.2599 23.9926 13.0194 23.7661 13.8723 23.3797C14.965 22.8733 16.1244 22.1537 17.1505 21.3008C19.7624 19.142 21.3215 16.4368 21.3348 13.3186C21.3215 8.90769 21.3348 3.51069 21.3348 3.0043C20.8018 3.11091 20.2821 3.2575 19.6957 3.33745C17.1505 3.71058 14.5519 4.00375 11.9933 4.00375C9.44808 4.00375 6.84953 3.71058 4.30428 3.35078ZM5.15713 23.353C1.97224 20.7411 0.0266519 17.3297 0 13.3319C0.0133259 8.92102 0 1.40519 0 1.35189C0 0.472377 0.826208 -0.167268 1.67907 0.0592733C1.70572 0.0725992 3.49139 0.499029 4.78401 0.698918C7.15602 1.04539 9.608 1.33856 11.9933 1.33856C14.392 1.33856 16.844 1.04539 19.2293 0.685592C20.5219 0.485703 22.2943 0.0592733 22.3343 0.0459474C23.1871 -0.180593 24.0133 0.459051 24.0133 1.33856C24.0133 1.39187 24 8.90769 24.0133 13.3186C23.9867 17.3297 22.0278 20.7411 18.8562 23.353C16.5108 25.2853 13.4992 26.6845 11.9933 26.6578C10.5008 26.6845 7.5025 25.2853 5.15713 23.353Z" fill="#EC008C"/>
</svg>
