<svg width="22" height="24" viewBox="0 0 22 24" fill="none" xmlns="http://www.w3.org/2000/svg">
<path d="M10.5675 11.7417C11.2133 11.7417 11.7417 11.2133 11.7417 10.5675C11.7417 9.92172 11.2133 9.39335 10.5675 9.39335C9.92172 9.39335 9.39335 9.92172 9.39335 10.5675C9.39335 11.2133 9.92172 11.7417 10.5675 11.7417ZM9.15851 19.8434L10.5675 19.0685L11.7417 19.7143C12.0235 19.8669 12.2113 19.7378 12.1526 19.4207L11.8943 18.0822L12.9041 16.9432C13.1155 16.6967 13.0333 16.4853 12.7045 16.4501L11.3425 16.3327L10.7084 14.9824C10.5675 14.6888 10.3327 14.6771 10.18 14.9706L9.47554 16.3327L8.21918 16.4618C7.89041 16.4971 7.80822 16.7202 8.00783 16.9667L8.9589 18.0939L8.72407 19.5499C8.68884 19.8669 8.87671 19.9961 9.15851 19.8434ZM11.7417 7.04501V2.34834H9.39335V7.04501H11.7417ZM16.4384 7.04501V2.34834H14.09V7.04501H16.4384ZM7.04501 9.39335H3.5225C2.87671 9.39335 2.34834 8.86497 2.34834 8.21918V2.34834H1.17417C0.528376 2.34834 0 1.8317 0 1.17417C0 0.528376 0.516634 0 1.17417 0H19.9609C20.6067 0 21.135 0.516634 21.135 1.17417C21.135 1.81996 20.6184 2.34834 19.9609 2.34834H18.7867V8.21918C18.7867 8.86497 18.2701 9.39335 17.6125 9.39335H14.09V10.5675C14.09 11.7652 13.4912 12.8219 12.5871 13.456L12.9041 14.1135L17.0254 14.4658C17.6712 14.5245 17.8474 14.9589 17.4129 15.4403L14.4188 18.7867L15.2877 23.272C15.4051 23.9061 15.0411 24.1761 14.4775 23.8591L10.5675 21.7456L6.66928 23.8708C6.09393 24.1761 5.70646 23.9178 5.81213 23.272L6.46967 18.7867L3.69863 15.4755C3.27593 14.9706 3.4638 14.5245 4.10959 14.4658L7.98434 14.1252L8.3953 13.3503C7.57339 12.6928 7.04501 11.6947 7.04501 10.5675V9.39335ZM7.04501 2.34834H4.69667V7.04501H7.04501V2.34834Z" fill="#EC008C"/>
</svg>
