<svg width="24" height="23" viewBox="0 0 24 23" fill="none" xmlns="http://www.w3.org/2000/svg">
<path d="M5.28168 19.6519H18.7187L19.5539 16.5813H4.44647L5.28168 19.6519ZM23.0545 8.59769C23.73 8.59769 24.1353 9.12584 23.9511 9.78909L20.9173 20.9293C20.7453 21.5803 20.0452 22.1084 19.382 22.1084H4.63071C3.95517 22.1084 3.26735 21.5803 3.08311 20.917L0.0370541 9.78909C-0.134901 9.12584 0.270422 8.59769 0.945959 8.59769H3.91832L8.47513 0.614069C8.80676 0.0245091 9.55599 -0.184293 10.1456 0.159617C10.7474 0.503526 10.9439 1.25276 10.6123 1.84232L6.7433 8.59769H17.2448L13.3881 1.84232C13.0565 1.25276 13.253 0.503526 13.8426 0.171899C14.4321 -0.159728 15.1814 0.0367916 15.513 0.626351L20.0821 8.59769H23.0545ZM2.94801 11.0542L3.78322 14.1248H20.2295L21.0647 11.0542H2.94801Z" fill="#EC008C"/>
</svg>
