<svg width="24" height="24" viewBox="0 0 24 24" fill="none" xmlns="http://www.w3.org/2000/svg">
<path d="M9.348 16.452L5.748 12.852C5.28 12.384 5.28 11.628 5.748 11.16C6.216 10.692 6.972 10.692 7.44 11.16L10.2 13.92L15.948 8.148C16.416 7.68 17.172 7.68 17.64 8.148C18.108 8.616 18.108 9.372 17.64 9.84L11.04 16.44C10.584 16.92 9.816 16.92 9.348 16.452ZM12 21.6C17.304 21.6 21.6 17.304 21.6 12C21.6 6.696 17.304 2.4 12 2.4C6.696 2.4 2.4 6.696 2.4 12C2.4 17.304 6.696 21.6 12 21.6ZM12 24C5.376 24 0 18.624 0 12C0 5.376 5.376 0 12 0C18.624 0 24 5.376 24 12C24 18.624 18.624 24 12 24Z" fill="#EC008C"/>
</svg>
