<svg width="20" height="20" viewBox="0 0 20 20" fill="none" xmlns="http://www.w3.org/2000/svg">
<path d="M13 10C13 8.34 11.66 7 10 7C8.34 7 7 8.34 7 10C7 11.66 8.34 13 10 13C11.66 13 13 11.66 13 10ZM20 10V11.5C20 13.43 18.43 15 16.5 15C15.29 15 14.23 14.39 13.6 13.47C12.69 14.41 11.42 15 10 15C7.24 15 5 12.76 5 10C5 7.24 7.24 5 10 5C12.76 5 15 7.24 15 10V11.5C15 12.33 15.67 13 16.5 13C17.33 13 18 12.33 18 11.5V10C18 5.58 14.42 2 10 2C5.58 2 2 5.58 2 10C2 14.42 5.58 18 10 18C10.55 18 11 18.45 11 19C11 19.55 10.55 20 10 20C4.48 20 0 15.52 0 10C0 4.48 4.48 0 10 0C15.52 0 20 4.48 20 10Z" fill="#EC008C"/>
</svg>
