<svg width="118" height="146" viewBox="0 0 118 146" fill="none" xmlns="http://www.w3.org/2000/svg">
<path d="M114.092 1.93141C114.092 1.40122 114.273 0.946769 114.634 0.568061C115.015 0.189354 115.49 -1.09717e-07 116.06 -8.47814e-08C116.612 -6.06769e-08 117.068 0.189354 117.43 0.568061C117.81 0.946769 118 1.40122 118 1.93141C118 2.4616 117.819 2.90658 117.458 3.26635C117.097 3.62613 116.631 3.80601 116.06 3.80601C115.49 3.80601 115.015 3.61666 114.634 3.23795C114.273 2.87818 114.092 2.44266 114.092 1.93141Z" fill="url(#paint0_linear)"/>
<path d="M114.092 14.8581C114.092 14.3279 114.273 13.8735 114.634 13.4948C115.015 13.1161 115.49 12.9267 116.06 12.9267C116.612 12.9267 117.068 13.1161 117.43 13.4948C117.81 13.8735 118 14.3279 118 14.8581C118 15.3883 117.819 15.8333 117.458 16.1931C117.097 16.5529 116.631 16.7327 116.06 16.7327C115.49 16.7327 115.015 16.5434 114.634 16.1647C114.273 15.8049 114.092 15.3694 114.092 14.8581Z" fill="url(#paint1_linear)"/>
<path d="M114.092 27.7849C114.092 27.2547 114.273 26.8002 114.634 26.4215C115.015 26.0428 115.49 25.8535 116.06 25.8535C116.612 25.8535 117.068 26.0428 117.43 26.4215C117.81 26.8002 118 27.2547 118 27.7849C118 28.3151 117.819 28.76 117.458 29.1198C117.097 29.4796 116.631 29.6595 116.06 29.6595C115.49 29.6595 115.015 29.4701 114.634 29.0914C114.273 28.7316 114.092 28.2961 114.092 27.7849Z" fill="url(#paint2_linear)"/>
<path d="M114.092 40.7116C114.092 40.1814 114.273 39.7269 114.634 39.3482C115.015 38.9695 115.49 38.7802 116.06 38.7802C116.612 38.7802 117.068 38.9695 117.43 39.3482C117.81 39.7269 118 40.1814 118 40.7116C118 41.2418 117.819 41.6868 117.458 42.0465C117.097 42.4063 116.631 42.5862 116.06 42.5862C115.49 42.5862 115.015 42.3968 114.634 42.0181C114.273 41.6584 114.092 41.2228 114.092 40.7116Z" fill="url(#paint3_linear)"/>
<path d="M114.092 53.6383C114.092 53.1081 114.273 52.6537 114.634 52.275C115.015 51.8963 115.49 51.7069 116.06 51.7069C116.612 51.7069 117.068 51.8963 117.43 52.275C117.81 52.6537 118 53.1081 118 53.6383C118 54.1685 117.819 54.6135 117.458 54.9733C117.097 55.333 116.631 55.5129 116.06 55.5129C115.49 55.5129 115.015 55.3236 114.634 54.9449C114.273 54.5851 114.092 54.1496 114.092 53.6383Z" fill="url(#paint4_linear)"/>
<path d="M114.092 66.565C114.092 66.0349 114.273 65.5804 114.634 65.2017C115.015 64.823 115.49 64.6336 116.06 64.6336C116.612 64.6336 117.068 64.823 117.43 65.2017C117.81 65.5804 118 66.0349 118 66.565C118 67.0952 117.819 67.5402 117.458 67.9C117.097 68.2598 116.631 68.4396 116.06 68.4396C115.49 68.4396 115.015 68.2503 114.634 67.8716C114.273 67.5118 114.092 67.0763 114.092 66.565Z" fill="url(#paint5_linear)"/>
<path d="M114.092 79.4918C114.092 78.9616 114.273 78.5071 114.634 78.1284C115.015 77.7497 115.49 77.5603 116.06 77.5603C116.612 77.5603 117.068 77.7497 117.43 78.1284C117.81 78.5071 118 78.9616 118 79.4918C118 80.0219 117.819 80.4669 117.458 80.8267C117.097 81.1865 116.631 81.3664 116.06 81.3664C115.49 81.3664 115.015 81.177 114.634 80.7983C114.273 80.4385 114.092 80.003 114.092 79.4918Z" fill="url(#paint6_linear)"/>
<path d="M114.092 92.4185C114.092 91.8883 114.273 91.4338 114.634 91.0551C115.015 90.6764 115.49 90.4871 116.06 90.4871C116.612 90.4871 117.068 90.6764 117.43 91.0551C117.81 91.4338 118 91.8883 118 92.4185C118 92.9487 117.819 93.3937 117.458 93.7534C117.097 94.1132 116.631 94.2931 116.06 94.2931C115.49 94.2931 115.015 94.1037 114.634 93.725C114.273 93.3653 114.092 92.9297 114.092 92.4185Z" fill="url(#paint7_linear)"/>
<path d="M114.092 105.345C114.092 104.815 114.273 104.361 114.634 103.982C115.015 103.603 115.49 103.414 116.06 103.414C116.612 103.414 117.068 103.603 117.43 103.982C117.81 104.361 118 104.815 118 105.345C118 105.875 117.819 106.32 117.458 106.68C117.097 107.04 116.631 107.22 116.06 107.22C115.49 107.22 115.015 107.03 114.634 106.652C114.273 106.292 114.092 105.856 114.092 105.345Z" fill="url(#paint8_linear)"/>
<path d="M114.092 118.272C114.092 117.742 114.273 117.287 114.634 116.909C115.015 116.53 115.49 116.341 116.06 116.341C116.612 116.341 117.068 116.53 117.43 116.909C117.81 117.287 118 117.742 118 118.272C118 118.802 117.819 119.247 117.458 119.607C117.097 119.967 116.631 120.147 116.06 120.147C115.49 120.147 115.015 119.957 114.634 119.578C114.273 119.219 114.092 118.783 114.092 118.272Z" fill="url(#paint9_linear)"/>
<path d="M114.092 131.199C114.092 130.668 114.273 130.214 114.634 129.835C115.015 129.457 115.49 129.267 116.06 129.267C116.612 129.267 117.068 129.457 117.43 129.835C117.81 130.214 118 130.668 118 131.199C118 131.729 117.819 132.174 117.458 132.534C117.097 132.893 116.631 133.073 116.06 133.073C115.49 133.073 115.015 132.884 114.634 132.505C114.273 132.145 114.092 131.71 114.092 131.199Z" fill="url(#paint10_linear)"/>
<path d="M114.092 144.125C114.092 143.595 114.273 143.141 114.634 142.762C115.015 142.383 115.49 142.194 116.06 142.194C116.612 142.194 117.068 142.383 117.43 142.762C117.81 143.141 118 143.595 118 144.125C118 144.656 117.819 145.101 117.458 145.46C117.097 145.82 116.631 146 116.06 146C115.49 146 115.015 145.811 114.634 145.432C114.273 145.072 114.092 144.637 114.092 144.125Z" fill="url(#paint11_linear)"/>
<path d="M85.5693 1.93141C85.5693 1.40122 85.7499 0.946768 86.1112 0.56806C86.4915 0.189352 86.9669 -1.3565e-06 87.5373 -1.33156e-06C88.0888 -1.30746e-06 88.5452 0.189352 88.9065 0.56806C89.2868 0.946768 89.4769 1.40122 89.4769 1.93141C89.4769 2.4616 89.2963 2.90658 88.935 3.26635C88.5737 3.62612 88.1078 3.80601 87.5373 3.80601C86.9669 3.80601 86.4915 3.61666 86.1112 3.23795C85.7499 2.87818 85.5693 2.44266 85.5693 1.93141Z" fill="url(#paint12_linear)"/>
<path d="M85.5693 14.8581C85.5693 14.3279 85.7499 13.8735 86.1112 13.4948C86.4915 13.1161 86.9669 12.9267 87.5373 12.9267C88.0888 12.9267 88.5452 13.1161 88.9065 13.4948C89.2868 13.8735 89.4769 14.3279 89.4769 14.8581C89.4769 15.3883 89.2963 15.8333 88.935 16.1931C88.5737 16.5528 88.1078 16.7327 87.5373 16.7327C86.9669 16.7327 86.4915 16.5434 86.1112 16.1647C85.7499 15.8049 85.5693 15.3694 85.5693 14.8581Z" fill="url(#paint13_linear)"/>
<path d="M85.5693 27.7849C85.5693 27.2547 85.7499 26.8002 86.1112 26.4215C86.4915 26.0428 86.9669 25.8535 87.5373 25.8535C88.0888 25.8535 88.5452 26.0428 88.9065 26.4215C89.2868 26.8002 89.4769 27.2547 89.4769 27.7849C89.4769 28.3151 89.2963 28.76 88.935 29.1198C88.5737 29.4796 88.1078 29.6595 87.5373 29.6595C86.9669 29.6595 86.4915 29.4701 86.1112 29.0914C85.7499 28.7316 85.5693 28.2961 85.5693 27.7849Z" fill="url(#paint14_linear)"/>
<path d="M85.5693 40.7116C85.5693 40.1814 85.7499 39.7269 86.1112 39.3482C86.4915 38.9695 86.9669 38.7802 87.5373 38.7802C88.0888 38.7802 88.5452 38.9695 88.9065 39.3482C89.2868 39.7269 89.4769 40.1814 89.4769 40.7116C89.4769 41.2418 89.2963 41.6868 88.935 42.0465C88.5737 42.4063 88.1078 42.5862 87.5373 42.5862C86.9669 42.5862 86.4915 42.3968 86.1112 42.0181C85.7499 41.6584 85.5693 41.2228 85.5693 40.7116Z" fill="url(#paint15_linear)"/>
<path d="M85.5692 53.6383C85.5692 53.1081 85.7499 52.6537 86.1112 52.275C86.4915 51.8963 86.9669 51.7069 87.5373 51.7069C88.0888 51.7069 88.5452 51.8963 88.9065 52.275C89.2868 52.6537 89.4769 53.1081 89.4769 53.6383C89.4769 54.1685 89.2963 54.6135 88.935 54.9733C88.5737 55.333 88.1078 55.5129 87.5373 55.5129C86.9669 55.5129 86.4915 55.3236 86.1112 54.9449C85.7499 54.5851 85.5692 54.1496 85.5692 53.6383Z" fill="url(#paint16_linear)"/>
<path d="M85.5692 66.565C85.5692 66.0348 85.7499 65.5804 86.1112 65.2017C86.4915 64.823 86.9669 64.6336 87.5373 64.6336C88.0888 64.6336 88.5452 64.823 88.9065 65.2017C89.2868 65.5804 89.4769 66.0348 89.4769 66.565C89.4769 67.0952 89.2963 67.5402 88.935 67.9C88.5737 68.2598 88.1078 68.4396 87.5373 68.4396C86.9669 68.4396 86.4915 68.2503 86.1112 67.8716C85.7499 67.5118 85.5692 67.0763 85.5692 66.565Z" fill="url(#paint17_linear)"/>
<path d="M85.5692 79.4918C85.5692 78.9616 85.7499 78.5071 86.1112 78.1284C86.4915 77.7497 86.9669 77.5603 87.5373 77.5603C88.0888 77.5603 88.5452 77.7497 88.9065 78.1284C89.2868 78.5071 89.4769 78.9616 89.4769 79.4918C89.4769 80.0219 89.2963 80.4669 88.935 80.8267C88.5737 81.1865 88.1078 81.3664 87.5373 81.3664C86.9669 81.3664 86.4915 81.177 86.1112 80.7983C85.7499 80.4385 85.5692 80.003 85.5692 79.4918Z" fill="url(#paint18_linear)"/>
<path d="M85.5692 92.4185C85.5692 91.8883 85.7499 91.4338 86.1112 91.0551C86.4915 90.6764 86.9669 90.4871 87.5373 90.4871C88.0888 90.4871 88.5452 90.6764 88.9065 91.0551C89.2868 91.4338 89.4769 91.8883 89.4769 92.4185C89.4769 92.9487 89.2963 93.3937 88.935 93.7534C88.5737 94.1132 88.1078 94.2931 87.5373 94.2931C86.9669 94.2931 86.4915 94.1037 86.1112 93.725C85.7499 93.3653 85.5692 92.9297 85.5692 92.4185Z" fill="url(#paint19_linear)"/>
<path d="M85.5692 105.345C85.5692 104.815 85.7499 104.361 86.1112 103.982C86.4915 103.603 86.9669 103.414 87.5373 103.414C88.0888 103.414 88.5452 103.603 88.9065 103.982C89.2868 104.361 89.4769 104.815 89.4769 105.345C89.4769 105.875 89.2963 106.32 88.935 106.68C88.5737 107.04 88.1078 107.22 87.5373 107.22C86.9669 107.22 86.4915 107.03 86.1112 106.652C85.7499 106.292 85.5692 105.856 85.5692 105.345Z" fill="url(#paint20_linear)"/>
<path d="M85.5692 118.272C85.5692 117.742 85.7499 117.287 86.1112 116.909C86.4915 116.53 86.9669 116.341 87.5373 116.341C88.0888 116.341 88.5452 116.53 88.9065 116.909C89.2868 117.287 89.4769 117.742 89.4769 118.272C89.4769 118.802 89.2963 119.247 88.935 119.607C88.5737 119.967 88.1078 120.147 87.5373 120.147C86.9669 120.147 86.4915 119.957 86.1112 119.578C85.7499 119.219 85.5692 118.783 85.5692 118.272Z" fill="url(#paint21_linear)"/>
<path d="M85.5692 131.199C85.5692 130.668 85.7499 130.214 86.1112 129.835C86.4915 129.457 86.9669 129.267 87.5373 129.267C88.0888 129.267 88.5452 129.457 88.9065 129.835C89.2868 130.214 89.4769 130.668 89.4769 131.199C89.4769 131.729 89.2963 132.174 88.935 132.534C88.5737 132.893 88.1078 133.073 87.5373 133.073C86.9669 133.073 86.4915 132.884 86.1112 132.505C85.7499 132.145 85.5692 131.71 85.5692 131.199Z" fill="url(#paint22_linear)"/>
<path d="M85.5692 144.125C85.5692 143.595 85.7499 143.141 86.1112 142.762C86.4915 142.383 86.9669 142.194 87.5373 142.194C88.0888 142.194 88.5452 142.383 88.9064 142.762C89.2868 143.141 89.4769 143.595 89.4769 144.125C89.4769 144.656 89.2963 145.101 88.935 145.46C88.5737 145.82 88.1078 146 87.5373 146C86.9669 146 86.4915 145.811 86.1112 145.432C85.7499 145.072 85.5692 144.637 85.5692 144.125Z" fill="url(#paint23_linear)"/>
<path d="M57.0462 1.93141C57.0462 1.40122 57.2268 0.946766 57.5881 0.568059C57.9684 0.189351 58.4438 -2.60328e-06 59.0143 -2.57835e-06C59.5657 -2.55424e-06 60.0221 0.189351 60.3834 0.568059C60.7637 0.946766 60.9538 1.40122 60.9538 1.93141C60.9538 2.4616 60.7732 2.90658 60.4119 3.26635C60.0506 3.62612 59.5847 3.80601 59.0143 3.80601C58.4438 3.80601 57.9684 3.61666 57.5881 3.23795C57.2268 2.87818 57.0462 2.44266 57.0462 1.93141Z" fill="url(#paint24_linear)"/>
<path d="M57.0462 14.8581C57.0462 14.3279 57.2268 13.8735 57.5881 13.4948C57.9684 13.1161 58.4438 12.9267 59.0143 12.9267C59.5657 12.9267 60.0221 13.1161 60.3834 13.4948C60.7637 13.8735 60.9538 14.3279 60.9538 14.8581C60.9538 15.3883 60.7732 15.8333 60.4119 16.1931C60.0506 16.5528 59.5847 16.7327 59.0143 16.7327C58.4438 16.7327 57.9684 16.5434 57.5881 16.1647C57.2268 15.8049 57.0462 15.3694 57.0462 14.8581Z" fill="url(#paint25_linear)"/>
<path d="M57.0462 27.7849C57.0462 27.2547 57.2268 26.8002 57.5881 26.4215C57.9684 26.0428 58.4438 25.8535 59.0143 25.8535C59.5657 25.8535 60.0221 26.0428 60.3834 26.4215C60.7637 26.8002 60.9538 27.2547 60.9538 27.7849C60.9538 28.315 60.7732 28.76 60.4119 29.1198C60.0506 29.4796 59.5847 29.6595 59.0143 29.6595C58.4438 29.6595 57.9684 29.4701 57.5881 29.0914C57.2268 28.7316 57.0462 28.2961 57.0462 27.7849Z" fill="url(#paint26_linear)"/>
<path d="M57.0462 40.7116C57.0462 40.1814 57.2268 39.7269 57.5881 39.3482C57.9684 38.9695 58.4438 38.7802 59.0143 38.7802C59.5657 38.7802 60.0221 38.9695 60.3834 39.3482C60.7637 39.7269 60.9538 40.1814 60.9538 40.7116C60.9538 41.2418 60.7732 41.6868 60.4119 42.0465C60.0506 42.4063 59.5847 42.5862 59.0143 42.5862C58.4438 42.5862 57.9684 42.3968 57.5881 42.0181C57.2268 41.6584 57.0462 41.2228 57.0462 40.7116Z" fill="url(#paint27_linear)"/>
<path d="M57.0462 53.6383C57.0462 53.1081 57.2268 52.6537 57.5881 52.275C57.9684 51.8963 58.4438 51.7069 59.0143 51.7069C59.5657 51.7069 60.0221 51.8963 60.3834 52.275C60.7637 52.6537 60.9538 53.1081 60.9538 53.6383C60.9538 54.1685 60.7732 54.6135 60.4119 54.9733C60.0506 55.333 59.5847 55.5129 59.0143 55.5129C58.4438 55.5129 57.9684 55.3236 57.5881 54.9449C57.2268 54.5851 57.0462 54.1496 57.0462 53.6383Z" fill="url(#paint28_linear)"/>
<path d="M57.0462 66.565C57.0462 66.0348 57.2268 65.5804 57.5881 65.2017C57.9684 64.823 58.4438 64.6336 59.0143 64.6336C59.5657 64.6336 60.0221 64.823 60.3834 65.2017C60.7637 65.5804 60.9538 66.0348 60.9538 66.565C60.9538 67.0952 60.7732 67.5402 60.4119 67.9C60.0506 68.2598 59.5847 68.4396 59.0143 68.4396C58.4438 68.4396 57.9684 68.2503 57.5881 67.8716C57.2268 67.5118 57.0462 67.0763 57.0462 66.565Z" fill="url(#paint29_linear)"/>
<path d="M57.0462 79.4918C57.0462 78.9616 57.2268 78.5071 57.5881 78.1284C57.9684 77.7497 58.4438 77.5603 59.0143 77.5603C59.5657 77.5603 60.0221 77.7497 60.3834 78.1284C60.7637 78.5071 60.9538 78.9616 60.9538 79.4918C60.9538 80.0219 60.7732 80.4669 60.4119 80.8267C60.0506 81.1865 59.5847 81.3664 59.0143 81.3664C58.4438 81.3664 57.9684 81.177 57.5881 80.7983C57.2268 80.4385 57.0462 80.003 57.0462 79.4918Z" fill="url(#paint30_linear)"/>
<path d="M57.0462 92.4185C57.0462 91.8883 57.2268 91.4338 57.5881 91.0551C57.9684 90.6764 58.4438 90.4871 59.0143 90.4871C59.5657 90.4871 60.0221 90.6764 60.3834 91.0551C60.7637 91.4338 60.9538 91.8883 60.9538 92.4185C60.9538 92.9487 60.7732 93.3937 60.4119 93.7534C60.0506 94.1132 59.5847 94.2931 59.0143 94.2931C58.4438 94.2931 57.9684 94.1037 57.5881 93.725C57.2268 93.3653 57.0462 92.9297 57.0462 92.4185Z" fill="url(#paint31_linear)"/>
<path d="M57.0462 105.345C57.0462 104.815 57.2268 104.361 57.5881 103.982C57.9684 103.603 58.4438 103.414 59.0143 103.414C59.5657 103.414 60.0221 103.603 60.3834 103.982C60.7637 104.361 60.9538 104.815 60.9538 105.345C60.9538 105.875 60.7732 106.32 60.4119 106.68C60.0506 107.04 59.5847 107.22 59.0143 107.22C58.4438 107.22 57.9684 107.03 57.5881 106.652C57.2268 106.292 57.0462 105.856 57.0462 105.345Z" fill="url(#paint32_linear)"/>
<path d="M57.0462 118.272C57.0462 117.742 57.2268 117.287 57.5881 116.909C57.9684 116.53 58.4438 116.341 59.0143 116.341C59.5657 116.341 60.0221 116.53 60.3834 116.909C60.7637 117.287 60.9538 117.742 60.9538 118.272C60.9538 118.802 60.7732 119.247 60.4119 119.607C60.0506 119.967 59.5847 120.147 59.0143 120.147C58.4438 120.147 57.9684 119.957 57.5881 119.578C57.2268 119.219 57.0462 118.783 57.0462 118.272Z" fill="url(#paint33_linear)"/>
<path d="M57.0462 131.199C57.0462 130.668 57.2268 130.214 57.5881 129.835C57.9684 129.457 58.4438 129.267 59.0143 129.267C59.5657 129.267 60.0221 129.457 60.3834 129.835C60.7637 130.214 60.9538 130.668 60.9538 131.199C60.9538 131.729 60.7732 132.174 60.4119 132.534C60.0506 132.893 59.5847 133.073 59.0143 133.073C58.4438 133.073 57.9684 132.884 57.5881 132.505C57.2268 132.145 57.0462 131.71 57.0462 131.199Z" fill="url(#paint34_linear)"/>
<path d="M57.0462 144.125C57.0462 143.595 57.2268 143.141 57.5881 142.762C57.9684 142.383 58.4438 142.194 59.0143 142.194C59.5657 142.194 60.0221 142.383 60.3834 142.762C60.7637 143.141 60.9538 143.595 60.9538 144.125C60.9538 144.656 60.7732 145.101 60.4119 145.46C60.0506 145.82 59.5847 146 59.0143 146C58.4438 146 57.9684 145.811 57.5881 145.432C57.2268 145.072 57.0462 144.637 57.0462 144.125Z" fill="url(#paint35_linear)"/>
<path d="M28.5231 1.9314C28.5231 1.40121 28.7037 0.946765 29.065 0.568057C29.4453 0.18935 29.9207 -3.85007e-06 30.4912 -3.82513e-06C31.0426 -3.80103e-06 31.499 0.18935 31.8603 0.568058C32.2406 0.946765 32.4308 1.40121 32.4308 1.93141C32.4308 2.4616 32.2501 2.90658 31.8888 3.26635C31.5275 3.62612 31.0616 3.80601 30.4912 3.80601C29.9207 3.80601 29.4453 3.61665 29.065 3.23795C28.7037 2.87817 28.5231 2.44266 28.5231 1.9314Z" fill="url(#paint36_linear)"/>
<path d="M28.5231 14.8581C28.5231 14.3279 28.7037 13.8735 29.065 13.4948C29.4453 13.1161 29.9207 12.9267 30.4912 12.9267C31.0426 12.9267 31.499 13.1161 31.8603 13.4948C32.2406 13.8735 32.4308 14.3279 32.4308 14.8581C32.4308 15.3883 32.2501 15.8333 31.8888 16.1931C31.5275 16.5528 31.0616 16.7327 30.4912 16.7327C29.9207 16.7327 29.4453 16.5434 29.065 16.1647C28.7037 15.8049 28.5231 15.3694 28.5231 14.8581Z" fill="url(#paint37_linear)"/>
<path d="M28.5231 27.7849C28.5231 27.2547 28.7037 26.8002 29.065 26.4215C29.4453 26.0428 29.9207 25.8534 30.4912 25.8534C31.0426 25.8534 31.499 26.0428 31.8603 26.4215C32.2406 26.8002 32.4308 27.2547 32.4308 27.7849C32.4308 28.315 32.2501 28.76 31.8888 29.1198C31.5275 29.4796 31.0616 29.6595 30.4912 29.6595C29.9207 29.6595 29.4453 29.4701 29.065 29.0914C28.7037 28.7316 28.5231 28.2961 28.5231 27.7849Z" fill="url(#paint38_linear)"/>
<path d="M28.5231 40.7116C28.5231 40.1814 28.7037 39.7269 29.065 39.3482C29.4453 38.9695 29.9207 38.7802 30.4912 38.7802C31.0426 38.7802 31.499 38.9695 31.8603 39.3482C32.2406 39.7269 32.4308 40.1814 32.4308 40.7116C32.4308 41.2418 32.2501 41.6868 31.8888 42.0465C31.5275 42.4063 31.0616 42.5862 30.4912 42.5862C29.9207 42.5862 29.4453 42.3968 29.065 42.0181C28.7037 41.6584 28.5231 41.2228 28.5231 40.7116Z" fill="url(#paint39_linear)"/>
<path d="M28.5231 53.6383C28.5231 53.1081 28.7037 52.6537 29.065 52.275C29.4453 51.8963 29.9207 51.7069 30.4912 51.7069C31.0426 51.7069 31.499 51.8963 31.8603 52.275C32.2406 52.6537 32.4308 53.1081 32.4308 53.6383C32.4308 54.1685 32.2501 54.6135 31.8888 54.9733C31.5275 55.333 31.0616 55.5129 30.4912 55.5129C29.9207 55.5129 29.4453 55.3236 29.065 54.9449C28.7037 54.5851 28.5231 54.1496 28.5231 53.6383Z" fill="url(#paint40_linear)"/>
<path d="M28.5231 66.565C28.5231 66.0348 28.7037 65.5804 29.065 65.2017C29.4453 64.823 29.9207 64.6336 30.4912 64.6336C31.0426 64.6336 31.499 64.823 31.8603 65.2017C32.2406 65.5804 32.4308 66.0348 32.4308 66.565C32.4308 67.0952 32.2501 67.5402 31.8888 67.9C31.5275 68.2598 31.0616 68.4396 30.4912 68.4396C29.9207 68.4396 29.4453 68.2503 29.065 67.8716C28.7037 67.5118 28.5231 67.0763 28.5231 66.565Z" fill="url(#paint41_linear)"/>
<path d="M28.5231 79.4918C28.5231 78.9616 28.7037 78.5071 29.065 78.1284C29.4453 77.7497 29.9207 77.5603 30.4912 77.5603C31.0426 77.5603 31.499 77.7497 31.8603 78.1284C32.2406 78.5071 32.4308 78.9616 32.4308 79.4918C32.4308 80.0219 32.2501 80.4669 31.8888 80.8267C31.5275 81.1865 31.0616 81.3664 30.4912 81.3664C29.9207 81.3664 29.4453 81.177 29.065 80.7983C28.7037 80.4385 28.5231 80.003 28.5231 79.4918Z" fill="url(#paint42_linear)"/>
<path d="M28.5231 92.4185C28.5231 91.8883 28.7037 91.4338 29.065 91.0551C29.4453 90.6764 29.9207 90.4871 30.4912 90.4871C31.0426 90.4871 31.499 90.6764 31.8603 91.0551C32.2406 91.4338 32.4308 91.8883 32.4308 92.4185C32.4308 92.9487 32.2501 93.3937 31.8888 93.7534C31.5275 94.1132 31.0616 94.2931 30.4912 94.2931C29.9207 94.2931 29.4453 94.1037 29.065 93.725C28.7037 93.3653 28.5231 92.9297 28.5231 92.4185Z" fill="url(#paint43_linear)"/>
<path d="M28.5231 105.345C28.5231 104.815 28.7037 104.361 29.065 103.982C29.4453 103.603 29.9207 103.414 30.4912 103.414C31.0426 103.414 31.499 103.603 31.8603 103.982C32.2406 104.361 32.4308 104.815 32.4308 105.345C32.4308 105.875 32.2501 106.32 31.8888 106.68C31.5275 107.04 31.0616 107.22 30.4912 107.22C29.9207 107.22 29.4453 107.03 29.065 106.652C28.7037 106.292 28.5231 105.856 28.5231 105.345Z" fill="url(#paint44_linear)"/>
<path d="M28.5231 118.272C28.5231 117.742 28.7037 117.287 29.065 116.909C29.4453 116.53 29.9207 116.341 30.4912 116.341C31.0426 116.341 31.499 116.53 31.8603 116.909C32.2406 117.287 32.4308 117.742 32.4308 118.272C32.4308 118.802 32.2501 119.247 31.8888 119.607C31.5275 119.967 31.0616 120.147 30.4912 120.147C29.9207 120.147 29.4453 119.957 29.065 119.578C28.7037 119.219 28.5231 118.783 28.5231 118.272Z" fill="url(#paint45_linear)"/>
<path d="M28.5231 131.199C28.5231 130.668 28.7037 130.214 29.065 129.835C29.4453 129.457 29.9207 129.267 30.4912 129.267C31.0426 129.267 31.499 129.457 31.8603 129.835C32.2406 130.214 32.4307 130.668 32.4307 131.199C32.4307 131.729 32.2501 132.174 31.8888 132.534C31.5275 132.893 31.0616 133.073 30.4912 133.073C29.9207 133.073 29.4453 132.884 29.065 132.505C28.7037 132.145 28.5231 131.71 28.5231 131.199Z" fill="url(#paint46_linear)"/>
<path d="M28.5231 144.125C28.5231 143.595 28.7037 143.141 29.065 142.762C29.4453 142.383 29.9207 142.194 30.4912 142.194C31.0426 142.194 31.499 142.383 31.8603 142.762C32.2406 143.141 32.4307 143.595 32.4307 144.125C32.4307 144.656 32.2501 145.101 31.8888 145.46C31.5275 145.82 31.0616 146 30.4912 146C29.9207 146 29.4453 145.811 29.065 145.432C28.7037 145.072 28.5231 144.637 28.5231 144.125Z" fill="url(#paint47_linear)"/>
<path d="M1.51744e-05 1.9314C1.51975e-05 1.40121 0.180656 0.946764 0.541946 0.568056C0.922256 0.189349 1.39763 -5.09685e-06 1.96809 -5.07192e-06C2.51954 -5.04781e-06 2.97592 0.189349 3.33721 0.568056C3.71752 0.946764 3.90767 1.40121 3.90767 1.9314C3.90767 2.46159 3.72703 2.90658 3.36574 3.26635C3.00445 3.62612 2.53856 3.80601 1.96809 3.80601C1.39763 3.80601 0.922256 3.61665 0.541946 3.23795C0.180656 2.87817 1.5152e-05 2.44266 1.51744e-05 1.9314Z" fill="url(#paint48_linear)"/>
<path d="M1.46093e-05 14.8581C1.46325e-05 14.3279 0.180656 13.8735 0.541946 13.4948C0.922256 13.1161 1.39763 12.9267 1.96809 12.9267C2.51954 12.9267 2.97592 13.1161 3.33721 13.4948C3.71752 13.8735 3.90767 14.3279 3.90767 14.8581C3.90767 15.3883 3.72703 15.8333 3.36574 16.1931C3.00445 16.5528 2.53856 16.7327 1.96809 16.7327C1.39763 16.7327 0.922256 16.5434 0.541946 16.1647C0.180656 15.8049 1.4587e-05 15.3694 1.46093e-05 14.8581Z" fill="url(#paint49_linear)"/>
<path d="M1.40443e-05 27.7849C1.40674e-05 27.2547 0.180655 26.8002 0.541945 26.4215C0.922255 26.0428 1.39763 25.8534 1.96809 25.8534C2.51954 25.8534 2.97592 26.0428 3.33721 26.4215C3.71752 26.8002 3.90767 27.2547 3.90767 27.7849C3.90767 28.315 3.72703 28.76 3.36574 29.1198C3.00445 29.4796 2.53856 29.6595 1.96809 29.6595C1.39763 29.6595 0.922255 29.4701 0.541945 29.0914C0.180655 28.7316 1.40219e-05 28.2961 1.40443e-05 27.7849Z" fill="url(#paint50_linear)"/>
<path d="M1.34792e-05 40.7116C1.35024e-05 40.1814 0.180655 39.7269 0.541945 39.3482C0.922255 38.9695 1.39763 38.7802 1.96809 38.7802C2.51954 38.7802 2.97592 38.9695 3.33721 39.3482C3.71752 39.7269 3.90767 40.1814 3.90767 40.7116C3.90767 41.2418 3.72703 41.6868 3.36574 42.0465C3.00445 42.4063 2.53856 42.5862 1.96809 42.5862C1.39763 42.5862 0.922255 42.3968 0.541945 42.0181C0.180655 41.6584 1.34569e-05 41.2228 1.34792e-05 40.7116Z" fill="url(#paint51_linear)"/>
<path d="M1.29142e-05 53.6383C1.29374e-05 53.1081 0.180654 52.6537 0.541944 52.275C0.922254 51.8963 1.39763 51.7069 1.96809 51.7069C2.51954 51.7069 2.97592 51.8963 3.33721 52.275C3.71752 52.6537 3.90767 53.1081 3.90767 53.6383C3.90767 54.1685 3.72703 54.6135 3.36574 54.9733C3.00445 55.333 2.53856 55.5129 1.96809 55.5129C1.39763 55.5129 0.922254 55.3236 0.541944 54.9448C0.180654 54.5851 1.28918e-05 54.1496 1.29142e-05 53.6383Z" fill="url(#paint52_linear)"/>
<path d="M1.23491e-05 66.565C1.23723e-05 66.0348 0.180654 65.5804 0.541944 65.2017C0.922254 64.823 1.39763 64.6336 1.96809 64.6336C2.51954 64.6336 2.97592 64.823 3.33721 65.2017C3.71752 65.5804 3.90767 66.0348 3.90767 66.565C3.90767 67.0952 3.72702 67.5402 3.36573 67.9C3.00444 68.2598 2.53856 68.4396 1.96809 68.4396C1.39763 68.4396 0.922253 68.2503 0.541943 67.8716C0.180653 67.5118 1.23268e-05 67.0763 1.23491e-05 66.565Z" fill="url(#paint53_linear)"/>
<path d="M1.17841e-05 79.4918C1.18073e-05 78.9616 0.180653 78.5071 0.541943 78.1284C0.922253 77.7497 1.39763 77.5603 1.96809 77.5603C2.51954 77.5603 2.97592 77.7497 3.33721 78.1284C3.71752 78.5071 3.90767 78.9616 3.90767 79.4918C3.90767 80.0219 3.72702 80.4669 3.36573 80.8267C3.00444 81.1865 2.53856 81.3664 1.96809 81.3664C1.39763 81.3664 0.922253 81.177 0.541943 80.7983C0.180653 80.4385 1.17617e-05 80.003 1.17841e-05 79.4918Z" fill="url(#paint54_linear)"/>
<path d="M1.1219e-05 92.4185C1.12422e-05 91.8883 0.180652 91.4338 0.541942 91.0551C0.922253 90.6764 1.39762 90.4871 1.96809 90.4871C2.51953 90.4871 2.97592 90.6764 3.33721 91.0551C3.71752 91.4338 3.90767 91.8883 3.90767 92.4185C3.90767 92.9487 3.72702 93.3936 3.36573 93.7534C3.00444 94.1132 2.53855 94.2931 1.96809 94.2931C1.39762 94.2931 0.922252 94.1037 0.541942 93.725C0.180652 93.3653 1.11967e-05 92.9297 1.1219e-05 92.4185Z" fill="url(#paint55_linear)"/>
<path d="M1.0654e-05 105.345C1.06772e-05 104.815 0.180652 104.361 0.541942 103.982C0.922252 103.603 1.39762 103.414 1.96809 103.414C2.51953 103.414 2.97592 103.603 3.33721 103.982C3.71752 104.361 3.90766 104.815 3.90766 105.345C3.90766 105.875 3.72702 106.32 3.36573 106.68C3.00444 107.04 2.53855 107.22 1.96809 107.22C1.39762 107.22 0.922252 107.03 0.541942 106.652C0.180652 106.292 1.06317e-05 105.856 1.0654e-05 105.345Z" fill="url(#paint56_linear)"/>
<path d="M1.0089e-05 118.272C1.01121e-05 117.742 0.180651 117.287 0.541941 116.909C0.922251 116.53 1.39762 116.341 1.96809 116.341C2.51953 116.341 2.97592 116.53 3.33721 116.909C3.71752 117.287 3.90766 117.742 3.90766 118.272C3.90766 118.802 3.72702 119.247 3.36573 119.607C3.00444 119.967 2.53855 120.147 1.96809 120.147C1.39762 120.147 0.922251 119.957 0.541941 119.578C0.180651 119.219 1.00666e-05 118.783 1.0089e-05 118.272Z" fill="url(#paint57_linear)"/>
<path d="M9.52391e-06 131.199C9.54709e-06 130.668 0.180651 130.214 0.541941 129.835C0.922251 129.457 1.39762 129.267 1.96809 129.267C2.51953 129.267 2.97592 129.457 3.33721 129.835C3.71752 130.214 3.90766 130.668 3.90766 131.199C3.90766 131.729 3.72702 132.174 3.36573 132.534C3.00444 132.893 2.53855 133.073 1.96809 133.073C1.39762 133.073 0.922251 132.884 0.541941 132.505C0.180651 132.145 9.50157e-06 131.71 9.52391e-06 131.199Z" fill="url(#paint58_linear)"/>
<path d="M8.95887e-06 144.125C8.98204e-06 143.595 0.18065 143.141 0.54194 142.762C0.92225 142.383 1.39762 142.194 1.96809 142.194C2.51953 142.194 2.97592 142.383 3.33721 142.762C3.71752 143.141 3.90766 143.595 3.90766 144.125C3.90766 144.656 3.72702 145.101 3.36573 145.46C3.00444 145.82 2.53855 146 1.96809 146C1.39762 146 0.92225 145.811 0.54194 145.432C0.18065 145.072 8.93652e-06 144.637 8.95887e-06 144.125Z" fill="url(#paint59_linear)"/>
<defs>
<linearGradient id="paint0_linear" x1="-42.8315" y1="152.121" x2="-0.450387" y2="44.8221" gradientUnits="userSpaceOnUse">
<stop stop-color="#C4C4C4"/>
<stop offset="1" stop-color="#DAD6CF"/>
</linearGradient>
<linearGradient id="paint1_linear" x1="-42.8315" y1="152.121" x2="-0.450387" y2="44.8221" gradientUnits="userSpaceOnUse">
<stop stop-color="#C4C4C4"/>
<stop offset="1" stop-color="#DAD6CF"/>
</linearGradient>
<linearGradient id="paint2_linear" x1="-42.8315" y1="152.121" x2="-0.450387" y2="44.8221" gradientUnits="userSpaceOnUse">
<stop stop-color="#C4C4C4"/>
<stop offset="1" stop-color="#DAD6CF"/>
</linearGradient>
<linearGradient id="paint3_linear" x1="-42.8315" y1="152.121" x2="-0.450387" y2="44.8221" gradientUnits="userSpaceOnUse">
<stop stop-color="#C4C4C4"/>
<stop offset="1" stop-color="#DAD6CF"/>
</linearGradient>
<linearGradient id="paint4_linear" x1="-42.8315" y1="152.121" x2="-0.450387" y2="44.8221" gradientUnits="userSpaceOnUse">
<stop stop-color="#C4C4C4"/>
<stop offset="1" stop-color="#DAD6CF"/>
</linearGradient>
<linearGradient id="paint5_linear" x1="-42.8315" y1="152.121" x2="-0.450387" y2="44.8221" gradientUnits="userSpaceOnUse">
<stop stop-color="#C4C4C4"/>
<stop offset="1" stop-color="#DAD6CF"/>
</linearGradient>
<linearGradient id="paint6_linear" x1="-42.8315" y1="152.121" x2="-0.450387" y2="44.8221" gradientUnits="userSpaceOnUse">
<stop stop-color="#C4C4C4"/>
<stop offset="1" stop-color="#DAD6CF"/>
</linearGradient>
<linearGradient id="paint7_linear" x1="-42.8315" y1="152.121" x2="-0.450387" y2="44.8221" gradientUnits="userSpaceOnUse">
<stop stop-color="#C4C4C4"/>
<stop offset="1" stop-color="#DAD6CF"/>
</linearGradient>
<linearGradient id="paint8_linear" x1="-42.8315" y1="152.121" x2="-0.450387" y2="44.8221" gradientUnits="userSpaceOnUse">
<stop stop-color="#C4C4C4"/>
<stop offset="1" stop-color="#DAD6CF"/>
</linearGradient>
<linearGradient id="paint9_linear" x1="-42.8315" y1="152.121" x2="-0.450387" y2="44.8221" gradientUnits="userSpaceOnUse">
<stop stop-color="#C4C4C4"/>
<stop offset="1" stop-color="#DAD6CF"/>
</linearGradient>
<linearGradient id="paint10_linear" x1="-42.8315" y1="152.121" x2="-0.450387" y2="44.8221" gradientUnits="userSpaceOnUse">
<stop stop-color="#C4C4C4"/>
<stop offset="1" stop-color="#DAD6CF"/>
</linearGradient>
<linearGradient id="paint11_linear" x1="-42.8315" y1="152.121" x2="-0.450387" y2="44.8221" gradientUnits="userSpaceOnUse">
<stop stop-color="#C4C4C4"/>
<stop offset="1" stop-color="#DAD6CF"/>
</linearGradient>
<linearGradient id="paint12_linear" x1="-42.8315" y1="152.121" x2="-0.450387" y2="44.8221" gradientUnits="userSpaceOnUse">
<stop stop-color="#C4C4C4"/>
<stop offset="1" stop-color="#DAD6CF"/>
</linearGradient>
<linearGradient id="paint13_linear" x1="-42.8315" y1="152.121" x2="-0.450387" y2="44.8221" gradientUnits="userSpaceOnUse">
<stop stop-color="#C4C4C4"/>
<stop offset="1" stop-color="#DAD6CF"/>
</linearGradient>
<linearGradient id="paint14_linear" x1="-42.8315" y1="152.121" x2="-0.450387" y2="44.8221" gradientUnits="userSpaceOnUse">
<stop stop-color="#C4C4C4"/>
<stop offset="1" stop-color="#DAD6CF"/>
</linearGradient>
<linearGradient id="paint15_linear" x1="-42.8315" y1="152.121" x2="-0.450387" y2="44.8221" gradientUnits="userSpaceOnUse">
<stop stop-color="#C4C4C4"/>
<stop offset="1" stop-color="#DAD6CF"/>
</linearGradient>
<linearGradient id="paint16_linear" x1="-42.8315" y1="152.121" x2="-0.450387" y2="44.8221" gradientUnits="userSpaceOnUse">
<stop stop-color="#C4C4C4"/>
<stop offset="1" stop-color="#DAD6CF"/>
</linearGradient>
<linearGradient id="paint17_linear" x1="-42.8315" y1="152.121" x2="-0.450387" y2="44.8221" gradientUnits="userSpaceOnUse">
<stop stop-color="#C4C4C4"/>
<stop offset="1" stop-color="#DAD6CF"/>
</linearGradient>
<linearGradient id="paint18_linear" x1="-42.8315" y1="152.121" x2="-0.450387" y2="44.8221" gradientUnits="userSpaceOnUse">
<stop stop-color="#C4C4C4"/>
<stop offset="1" stop-color="#DAD6CF"/>
</linearGradient>
<linearGradient id="paint19_linear" x1="-42.8315" y1="152.121" x2="-0.450387" y2="44.8221" gradientUnits="userSpaceOnUse">
<stop stop-color="#C4C4C4"/>
<stop offset="1" stop-color="#DAD6CF"/>
</linearGradient>
<linearGradient id="paint20_linear" x1="-42.8315" y1="152.121" x2="-0.450387" y2="44.8221" gradientUnits="userSpaceOnUse">
<stop stop-color="#C4C4C4"/>
<stop offset="1" stop-color="#DAD6CF"/>
</linearGradient>
<linearGradient id="paint21_linear" x1="-42.8315" y1="152.121" x2="-0.450387" y2="44.8221" gradientUnits="userSpaceOnUse">
<stop stop-color="#C4C4C4"/>
<stop offset="1" stop-color="#DAD6CF"/>
</linearGradient>
<linearGradient id="paint22_linear" x1="-42.8315" y1="152.121" x2="-0.450387" y2="44.8221" gradientUnits="userSpaceOnUse">
<stop stop-color="#C4C4C4"/>
<stop offset="1" stop-color="#DAD6CF"/>
</linearGradient>
<linearGradient id="paint23_linear" x1="-42.8315" y1="152.121" x2="-0.450387" y2="44.8221" gradientUnits="userSpaceOnUse">
<stop stop-color="#C4C4C4"/>
<stop offset="1" stop-color="#DAD6CF"/>
</linearGradient>
<linearGradient id="paint24_linear" x1="-42.8315" y1="152.121" x2="-0.450387" y2="44.8221" gradientUnits="userSpaceOnUse">
<stop stop-color="#C4C4C4"/>
<stop offset="1" stop-color="#DAD6CF"/>
</linearGradient>
<linearGradient id="paint25_linear" x1="-42.8315" y1="152.121" x2="-0.450387" y2="44.8221" gradientUnits="userSpaceOnUse">
<stop stop-color="#C4C4C4"/>
<stop offset="1" stop-color="#DAD6CF"/>
</linearGradient>
<linearGradient id="paint26_linear" x1="-42.8315" y1="152.121" x2="-0.450387" y2="44.8221" gradientUnits="userSpaceOnUse">
<stop stop-color="#C4C4C4"/>
<stop offset="1" stop-color="#DAD6CF"/>
</linearGradient>
<linearGradient id="paint27_linear" x1="-42.8315" y1="152.121" x2="-0.450387" y2="44.8221" gradientUnits="userSpaceOnUse">
<stop stop-color="#C4C4C4"/>
<stop offset="1" stop-color="#DAD6CF"/>
</linearGradient>
<linearGradient id="paint28_linear" x1="-42.8315" y1="152.121" x2="-0.450387" y2="44.8221" gradientUnits="userSpaceOnUse">
<stop stop-color="#C4C4C4"/>
<stop offset="1" stop-color="#DAD6CF"/>
</linearGradient>
<linearGradient id="paint29_linear" x1="-42.8315" y1="152.121" x2="-0.450387" y2="44.8221" gradientUnits="userSpaceOnUse">
<stop stop-color="#C4C4C4"/>
<stop offset="1" stop-color="#DAD6CF"/>
</linearGradient>
<linearGradient id="paint30_linear" x1="-42.8315" y1="152.121" x2="-0.450387" y2="44.8221" gradientUnits="userSpaceOnUse">
<stop stop-color="#C4C4C4"/>
<stop offset="1" stop-color="#DAD6CF"/>
</linearGradient>
<linearGradient id="paint31_linear" x1="-42.8315" y1="152.121" x2="-0.450387" y2="44.8221" gradientUnits="userSpaceOnUse">
<stop stop-color="#C4C4C4"/>
<stop offset="1" stop-color="#DAD6CF"/>
</linearGradient>
<linearGradient id="paint32_linear" x1="-42.8315" y1="152.121" x2="-0.450387" y2="44.8221" gradientUnits="userSpaceOnUse">
<stop stop-color="#C4C4C4"/>
<stop offset="1" stop-color="#DAD6CF"/>
</linearGradient>
<linearGradient id="paint33_linear" x1="-42.8315" y1="152.121" x2="-0.450387" y2="44.8221" gradientUnits="userSpaceOnUse">
<stop stop-color="#C4C4C4"/>
<stop offset="1" stop-color="#DAD6CF"/>
</linearGradient>
<linearGradient id="paint34_linear" x1="-42.8315" y1="152.121" x2="-0.450387" y2="44.8221" gradientUnits="userSpaceOnUse">
<stop stop-color="#C4C4C4"/>
<stop offset="1" stop-color="#DAD6CF"/>
</linearGradient>
<linearGradient id="paint35_linear" x1="-42.8315" y1="152.121" x2="-0.450387" y2="44.8221" gradientUnits="userSpaceOnUse">
<stop stop-color="#C4C4C4"/>
<stop offset="1" stop-color="#DAD6CF"/>
</linearGradient>
<linearGradient id="paint36_linear" x1="-42.8315" y1="152.121" x2="-0.450387" y2="44.8221" gradientUnits="userSpaceOnUse">
<stop stop-color="#C4C4C4"/>
<stop offset="1" stop-color="#DAD6CF"/>
</linearGradient>
<linearGradient id="paint37_linear" x1="-42.8315" y1="152.121" x2="-0.450387" y2="44.8221" gradientUnits="userSpaceOnUse">
<stop stop-color="#C4C4C4"/>
<stop offset="1" stop-color="#DAD6CF"/>
</linearGradient>
<linearGradient id="paint38_linear" x1="-42.8315" y1="152.121" x2="-0.450387" y2="44.8221" gradientUnits="userSpaceOnUse">
<stop stop-color="#C4C4C4"/>
<stop offset="1" stop-color="#DAD6CF"/>
</linearGradient>
<linearGradient id="paint39_linear" x1="-42.8315" y1="152.121" x2="-0.450387" y2="44.8221" gradientUnits="userSpaceOnUse">
<stop stop-color="#C4C4C4"/>
<stop offset="1" stop-color="#DAD6CF"/>
</linearGradient>
<linearGradient id="paint40_linear" x1="-42.8315" y1="152.121" x2="-0.450387" y2="44.8221" gradientUnits="userSpaceOnUse">
<stop stop-color="#C4C4C4"/>
<stop offset="1" stop-color="#DAD6CF"/>
</linearGradient>
<linearGradient id="paint41_linear" x1="-42.8315" y1="152.121" x2="-0.450387" y2="44.8221" gradientUnits="userSpaceOnUse">
<stop stop-color="#C4C4C4"/>
<stop offset="1" stop-color="#DAD6CF"/>
</linearGradient>
<linearGradient id="paint42_linear" x1="-42.8315" y1="152.121" x2="-0.450387" y2="44.8221" gradientUnits="userSpaceOnUse">
<stop stop-color="#C4C4C4"/>
<stop offset="1" stop-color="#DAD6CF"/>
</linearGradient>
<linearGradient id="paint43_linear" x1="-42.8315" y1="152.121" x2="-0.450387" y2="44.8221" gradientUnits="userSpaceOnUse">
<stop stop-color="#C4C4C4"/>
<stop offset="1" stop-color="#DAD6CF"/>
</linearGradient>
<linearGradient id="paint44_linear" x1="-42.8315" y1="152.121" x2="-0.450387" y2="44.8221" gradientUnits="userSpaceOnUse">
<stop stop-color="#C4C4C4"/>
<stop offset="1" stop-color="#DAD6CF"/>
</linearGradient>
<linearGradient id="paint45_linear" x1="-42.8315" y1="152.121" x2="-0.450387" y2="44.8221" gradientUnits="userSpaceOnUse">
<stop stop-color="#C4C4C4"/>
<stop offset="1" stop-color="#DAD6CF"/>
</linearGradient>
<linearGradient id="paint46_linear" x1="-42.8315" y1="152.121" x2="-0.450387" y2="44.8221" gradientUnits="userSpaceOnUse">
<stop stop-color="#C4C4C4"/>
<stop offset="1" stop-color="#DAD6CF"/>
</linearGradient>
<linearGradient id="paint47_linear" x1="-42.8315" y1="152.121" x2="-0.450387" y2="44.8221" gradientUnits="userSpaceOnUse">
<stop stop-color="#C4C4C4"/>
<stop offset="1" stop-color="#DAD6CF"/>
</linearGradient>
<linearGradient id="paint48_linear" x1="-42.8315" y1="152.121" x2="-0.450387" y2="44.8221" gradientUnits="userSpaceOnUse">
<stop stop-color="#C4C4C4"/>
<stop offset="1" stop-color="#DAD6CF"/>
</linearGradient>
<linearGradient id="paint49_linear" x1="-42.8315" y1="152.121" x2="-0.450387" y2="44.8221" gradientUnits="userSpaceOnUse">
<stop stop-color="#C4C4C4"/>
<stop offset="1" stop-color="#DAD6CF"/>
</linearGradient>
<linearGradient id="paint50_linear" x1="-42.8315" y1="152.121" x2="-0.450387" y2="44.8221" gradientUnits="userSpaceOnUse">
<stop stop-color="#C4C4C4"/>
<stop offset="1" stop-color="#DAD6CF"/>
</linearGradient>
<linearGradient id="paint51_linear" x1="-42.8315" y1="152.121" x2="-0.450387" y2="44.8221" gradientUnits="userSpaceOnUse">
<stop stop-color="#C4C4C4"/>
<stop offset="1" stop-color="#DAD6CF"/>
</linearGradient>
<linearGradient id="paint52_linear" x1="-42.8315" y1="152.121" x2="-0.450387" y2="44.8221" gradientUnits="userSpaceOnUse">
<stop stop-color="#C4C4C4"/>
<stop offset="1" stop-color="#DAD6CF"/>
</linearGradient>
<linearGradient id="paint53_linear" x1="-42.8315" y1="152.121" x2="-0.450387" y2="44.8221" gradientUnits="userSpaceOnUse">
<stop stop-color="#C4C4C4"/>
<stop offset="1" stop-color="#DAD6CF"/>
</linearGradient>
<linearGradient id="paint54_linear" x1="-42.8315" y1="152.121" x2="-0.450387" y2="44.8221" gradientUnits="userSpaceOnUse">
<stop stop-color="#C4C4C4"/>
<stop offset="1" stop-color="#DAD6CF"/>
</linearGradient>
<linearGradient id="paint55_linear" x1="-42.8315" y1="152.121" x2="-0.450387" y2="44.8221" gradientUnits="userSpaceOnUse">
<stop stop-color="#C4C4C4"/>
<stop offset="1" stop-color="#DAD6CF"/>
</linearGradient>
<linearGradient id="paint56_linear" x1="-42.8315" y1="152.121" x2="-0.450387" y2="44.8221" gradientUnits="userSpaceOnUse">
<stop stop-color="#C4C4C4"/>
<stop offset="1" stop-color="#DAD6CF"/>
</linearGradient>
<linearGradient id="paint57_linear" x1="-42.8315" y1="152.121" x2="-0.450387" y2="44.8221" gradientUnits="userSpaceOnUse">
<stop stop-color="#C4C4C4"/>
<stop offset="1" stop-color="#DAD6CF"/>
</linearGradient>
<linearGradient id="paint58_linear" x1="-42.8315" y1="152.121" x2="-0.450387" y2="44.8221" gradientUnits="userSpaceOnUse">
<stop stop-color="#C4C4C4"/>
<stop offset="1" stop-color="#DAD6CF"/>
</linearGradient>
<linearGradient id="paint59_linear" x1="-42.8315" y1="152.121" x2="-0.450387" y2="44.8221" gradientUnits="userSpaceOnUse">
<stop stop-color="#C4C4C4"/>
<stop offset="1" stop-color="#DAD6CF"/>
</linearGradient>
</defs>
</svg>
