<svg width="20" height="22" viewBox="0 0 20 22" fill="none" xmlns="http://www.w3.org/2000/svg">
<path d="M7.15 6.14C7.33 5.96 7.64 5.96 7.82 6.14L9.17 7.48C9.36 7.67 9.36 7.97 9.17 8.15C8.97 8.34 8.9 8.68 9 8.93C9 8.93 9.16 9.5 9.83 10.17C10.5 10.84 11.07 11 11.07 11C11.31 11.1 11.66 11.03 11.84 10.84C12.03 10.65 12.33 10.65 12.51 10.84L13.86 12.18C14.04 12.36 14.04 12.66 13.86 12.85L13.19 13.52C12.63 14.08 11.66 14.16 11.03 13.69C11.03 13.69 10.15 13.16 8.47 11.49C6.8 9.82 6.3 8.97 6.3 8.97C5.84 8.33 5.92 7.37 6.47 6.81L7.15 6.14ZM2 10C2 12.31 2.98 14.45 4.67 15.96C4.88 16.15 5 16.42 5 16.71V19.16L6.96 17.82C7.2 17.66 7.51 17.61 7.79 17.69C8.51 17.9 9.25 18 10 18C14.42 18 18 14.42 18 10C18 5.58 14.42 2 10 2C5.58 2 2 5.58 2 10ZM3 21C3 21 2.99 17.45 2.99 17.14C1.1 15.27 0 12.72 0 10C0 4.48 4.48 0 10 0C15.52 0 20 4.48 20 10C20 15.52 15.52 20 10 20C9.22 20 8.44 19.91 7.69 19.73C7.52 19.84 4.55 21.83 4.55 21.83C3.89 22.28 3 21.8 3 21Z" fill="#EC008C"/>
</svg>
