<svg width="19" height="22" fill="none" xmlns="http://www.w3.org/2000/svg"><path d="M12.21 19.71a.996.996 0 10-1.41-1.41.996.996 0 101.41 1.41zM7.25 4.5l.64-1.89-1.92.63L7.25 4.5zm-3.89-.99c-.54-.53-.32-1.43.4-1.67L9.18.06c.8-.26 1.56.49 1.29 1.28L8.66 6.68c-.24.71-1.15.93-1.69.4L3.36 3.51zm10.26 17.61a3 3 0 01-4.24 0 3 3 0 010-4.24 3 3 0 014.24 0 3 3 0 010 4.24zM3 6.01c.4-.39 1.05-.39 1.44 0 .4.39.4 1.03 0 1.43l-1.8 1.78c-.8.79-.8 2.23 0 3.02.85.84 2.42 1 3.43.33l5.73-3.8c1.81-1.2 4.47-.94 6.01.58 1.59 1.58 1.59 4 0 5.57l-1.45 1.43c-.4.39-1.05.39-1.44 0-.4-.39-.4-1.03 0-1.43l1.45-1.43c.8-.79.8-1.93 0-2.72-.85-.84-2.43-.99-3.43-.33l-5.73 3.8c-1.82 1.2-4.47.94-6.01-.58-1.59-1.57-1.59-4.29 0-5.87L3 6.01z" fill="#EC008C"/></svg>