<svg width="24" height="27" fill="none" xmlns="http://www.w3.org/2000/svg"><path d="M9.715 17.61l-3.998-3.998a1.328 1.328 0 111.879-1.88l3.065 3.066 6.383-6.41c.52-.52 1.36-.52 1.879 0 .52.52.52 1.36 0 1.879l-7.33 7.33a1.315 1.315 0 01-1.878.012zM4.305 3.35c-.587-.08-1.107-.24-1.64-.332 0 .506.014 5.903 0 10.314.014 3.118 1.573 5.823 4.185 7.982a16.198 16.198 0 003.278 2.079c.866.373 1.612.6 1.865.6.267 0 1.026-.227 1.88-.613a15.352 15.352 0 003.278-2.08c2.611-2.158 4.17-4.863 4.184-7.981-.014-4.411 0-9.808 0-10.315-.533.107-1.053.253-1.64.333-2.544.374-5.143.667-7.702.667-2.545 0-5.143-.293-7.689-.653zm.852 20.003C1.972 20.741.027 17.33 0 13.332.013 8.92 0 1.405 0 1.352 0 .472.826-.168 1.68.059 1.705.073 3.49.5 4.783.7c2.372.346 4.824.64 7.21.64 2.398 0 4.85-.294 7.235-.653 1.293-.2 3.065-.627 3.105-.64a1.333 1.333 0 011.68 1.293c0 .053-.014 7.569 0 11.98-.027 4.01-1.986 7.422-5.158 10.034-2.345 1.932-5.357 3.331-6.863 3.305-1.492.026-4.49-1.373-6.836-3.305z" fill="#EC008C"/></svg>