<svg width="22" height="24" fill="none" xmlns="http://www.w3.org/2000/svg"><path d="M10.568 11.742c.645 0 1.174-.529 1.174-1.175 0-.645-.529-1.174-1.175-1.174-.645 0-1.174.529-1.174 1.175 0 .645.529 1.174 1.175 1.174zm-1.41 8.101l1.41-.774 1.174.645c.281.153.47.024.41-.293l-.258-1.339 1.01-1.139c.212-.246.13-.458-.2-.493l-1.362-.117-.634-1.35c-.14-.294-.375-.306-.528-.012l-.704 1.362-1.257.129c-.329.035-.41.258-.211.505l.95 1.127-.234 1.456c-.035.317.153.446.435.293zm2.584-12.798V2.348H9.393v4.697h2.349zm4.696 0V2.348H14.09v4.697h2.348zM7.045 9.393H3.523A1.178 1.178 0 012.348 8.22V2.35H1.174A1.17 1.17 0 010 1.173 1.17 1.17 0 011.174 0h18.787a1.17 1.17 0 011.174 1.174 1.17 1.17 0 01-1.174 1.174h-1.174V8.22a1.17 1.17 0 01-1.174 1.174H14.09v1.175a3.525 3.525 0 01-1.503 2.888l.317.658 4.121.352c.646.059.822.493.388.974l-2.994 3.347.869 4.485c.117.634-.247.904-.81.587l-3.91-2.113-3.899 2.125c-.575.305-.963.047-.857-.599l.658-4.485-2.771-3.311c-.423-.505-.235-.952.41-1.01l3.875-.34.411-.776a3.553 3.553 0 01-1.35-2.782V9.393zm0-7.045H4.697v4.697h2.348V2.348z" fill="#EC008C"/></svg>