<svg width="118" height="146" fill="none" xmlns="http://www.w3.org/2000/svg"><path d="M114.092 1.931c0-.53.181-.984.542-1.363.381-.379.856-.568 1.426-.568.552 0 1.008.19 1.37.568.38.379.57.833.57 1.363s-.181.976-.542 1.335c-.361.36-.827.54-1.398.54-.57 0-1.045-.19-1.426-.568a1.777 1.777 0 01-.542-1.307z" fill="url(#paint0_linear)"/><path d="M114.092 14.858c0-.53.181-.985.542-1.363.381-.379.856-.568 1.426-.568.552 0 1.008.19 1.37.568.38.379.57.833.57 1.363s-.181.975-.542 1.335c-.361.36-.827.54-1.398.54-.57 0-1.045-.19-1.426-.568a1.777 1.777 0 01-.542-1.307z" fill="url(#paint1_linear)"/><path d="M114.092 27.785c0-.53.181-.985.542-1.363.381-.38.856-.569 1.426-.569.552 0 1.008.19 1.37.569.38.378.57.833.57 1.363s-.181.975-.542 1.335c-.361.36-.827.54-1.398.54-.57 0-1.045-.19-1.426-.569a1.777 1.777 0 01-.542-1.306z" fill="url(#paint2_linear)"/><path d="M114.092 40.712c0-.53.181-.985.542-1.364.381-.379.856-.568 1.426-.568.552 0 1.008.19 1.37.568.38.379.57.833.57 1.364 0 .53-.181.975-.542 1.334-.361.36-.827.54-1.398.54-.57 0-1.045-.19-1.426-.568a1.777 1.777 0 01-.542-1.306z" fill="url(#paint3_linear)"/><path d="M114.092 53.638c0-.53.181-.984.542-1.363.381-.379.856-.568 1.426-.568.552 0 1.008.19 1.37.568.38.379.57.833.57 1.363s-.181.976-.542 1.335c-.361.36-.827.54-1.398.54-.57 0-1.045-.19-1.426-.568a1.777 1.777 0 01-.542-1.307z" fill="url(#paint4_linear)"/><path d="M114.092 66.565c0-.53.181-.985.542-1.363.381-.379.856-.568 1.426-.568.552 0 1.008.189 1.37.568.38.378.57.833.57 1.363s-.181.975-.542 1.335c-.361.36-.827.54-1.398.54-.57 0-1.045-.19-1.426-.568a1.777 1.777 0 01-.542-1.307z" fill="url(#paint5_linear)"/><path d="M114.092 79.492c0-.53.181-.985.542-1.364.381-.378.856-.568 1.426-.568.552 0 1.008.19 1.37.568.38.38.57.834.57 1.364 0 .53-.181.975-.542 1.335-.361.36-.827.54-1.398.54-.57 0-1.045-.19-1.426-.569a1.777 1.777 0 01-.542-1.306z" fill="url(#paint6_linear)"/><path d="M114.092 92.418c0-.53.181-.984.542-1.363.381-.379.856-.568 1.426-.568.552 0 1.008.19 1.37.568.38.379.57.833.57 1.363s-.181.976-.542 1.335c-.361.36-.827.54-1.398.54-.57 0-1.045-.19-1.426-.568a1.777 1.777 0 01-.542-1.306z" fill="url(#paint7_linear)"/><path d="M114.092 105.345c0-.53.181-.984.542-1.363.381-.379.856-.568 1.426-.568.552 0 1.008.189 1.37.568.38.379.57.833.57 1.363s-.181.975-.542 1.335c-.361.36-.827.54-1.398.54-.57 0-1.045-.19-1.426-.568a1.779 1.779 0 01-.542-1.307z" fill="url(#paint8_linear)"/><path d="M114.092 118.272c0-.53.181-.985.542-1.363.381-.379.856-.568 1.426-.568.552 0 1.008.189 1.37.568.38.378.57.833.57 1.363s-.181.975-.542 1.335c-.361.36-.827.54-1.398.54-.57 0-1.045-.19-1.426-.569a1.775 1.775 0 01-.542-1.306z" fill="url(#paint9_linear)"/><path d="M114.092 131.199c0-.531.181-.985.542-1.364.381-.378.856-.568 1.426-.568.552 0 1.008.19 1.37.568.38.379.57.833.57 1.364 0 .53-.181.975-.542 1.335-.361.359-.827.539-1.398.539-.57 0-1.045-.189-1.426-.568a1.777 1.777 0 01-.542-1.306z" fill="url(#paint10_linear)"/><path d="M114.092 144.125c0-.53.181-.984.542-1.363.381-.379.856-.568 1.426-.568.552 0 1.008.189 1.37.568.38.379.57.833.57 1.363 0 .531-.181.976-.542 1.335-.361.36-.827.54-1.398.54-.57 0-1.045-.189-1.426-.568a1.777 1.777 0 01-.542-1.307z" fill="url(#paint11_linear)"/><path d="M85.57 1.931c0-.53.18-.984.541-1.363.38-.379.856-.568 1.426-.568.552 0 1.008.19 1.37.568.38.379.57.833.57 1.363s-.18.976-.542 1.335c-.361.36-.827.54-1.398.54-.57 0-1.046-.19-1.426-.568a1.776 1.776 0 01-.542-1.307z" fill="url(#paint12_linear)"/><path d="M85.57 14.858c0-.53.18-.985.541-1.363.38-.379.856-.568 1.426-.568.552 0 1.008.19 1.37.568.38.379.57.833.57 1.363s-.18.975-.542 1.335c-.361.36-.827.54-1.398.54-.57 0-1.046-.19-1.426-.568a1.776 1.776 0 01-.542-1.307z" fill="url(#paint13_linear)"/><path d="M85.57 27.785c0-.53.18-.985.541-1.363.38-.38.856-.569 1.426-.569.552 0 1.008.19 1.37.569.38.378.57.833.57 1.363s-.18.975-.542 1.335c-.361.36-.827.54-1.398.54-.57 0-1.046-.19-1.426-.569a1.776 1.776 0 01-.542-1.306z" fill="url(#paint14_linear)"/><path d="M85.57 40.712c0-.53.18-.985.541-1.364.38-.379.856-.568 1.426-.568.552 0 1.008.19 1.37.568.38.379.57.833.57 1.364 0 .53-.18.975-.542 1.334-.361.36-.827.54-1.398.54-.57 0-1.046-.19-1.426-.568a1.776 1.776 0 01-.542-1.306z" fill="url(#paint15_linear)"/><path d="M85.57 53.638c0-.53.18-.984.541-1.363.38-.379.856-.568 1.426-.568.552 0 1.008.19 1.37.568.38.379.57.833.57 1.363s-.18.976-.542 1.335c-.361.36-.827.54-1.398.54-.57 0-1.046-.19-1.426-.568a1.776 1.776 0 01-.542-1.307z" fill="url(#paint16_linear)"/><path d="M85.57 66.565c0-.53.18-.985.541-1.363.38-.379.856-.568 1.426-.568.552 0 1.008.189 1.37.568.38.378.57.833.57 1.363s-.18.975-.542 1.335c-.361.36-.827.54-1.398.54-.57 0-1.046-.19-1.426-.568a1.776 1.776 0 01-.542-1.307z" fill="url(#paint17_linear)"/><path d="M85.57 79.492c0-.53.18-.985.541-1.364.38-.378.856-.568 1.426-.568.552 0 1.008.19 1.37.568.38.38.57.834.57 1.364 0 .53-.18.975-.542 1.335-.361.36-.827.54-1.398.54-.57 0-1.046-.19-1.426-.569a1.776 1.776 0 01-.542-1.306z" fill="url(#paint18_linear)"/><path d="M85.57 92.418c0-.53.18-.984.541-1.363.38-.379.856-.568 1.426-.568.552 0 1.008.19 1.37.568.38.379.57.833.57 1.363s-.18.976-.542 1.335c-.361.36-.827.54-1.398.54-.57 0-1.046-.19-1.426-.568a1.776 1.776 0 01-.542-1.306z" fill="url(#paint19_linear)"/><path d="M85.57 105.345c0-.53.18-.984.541-1.363.38-.379.856-.568 1.426-.568.552 0 1.008.189 1.37.568.38.379.57.833.57 1.363s-.18.975-.542 1.335c-.361.36-.827.54-1.398.54-.57 0-1.046-.19-1.426-.568a1.778 1.778 0 01-.542-1.307z" fill="url(#paint20_linear)"/><path d="M85.57 118.272c0-.53.18-.985.541-1.363.38-.379.856-.568 1.426-.568.552 0 1.008.189 1.37.568.38.378.57.833.57 1.363s-.18.975-.542 1.335c-.361.36-.827.54-1.398.54-.57 0-1.046-.19-1.426-.569a1.774 1.774 0 01-.542-1.306z" fill="url(#paint21_linear)"/><path d="M85.57 131.199c0-.531.18-.985.541-1.364.38-.378.856-.568 1.426-.568.552 0 1.008.19 1.37.568.38.379.57.833.57 1.364 0 .53-.18.975-.542 1.335-.361.359-.827.539-1.398.539-.57 0-1.046-.189-1.426-.568a1.775 1.775 0 01-.542-1.306z" fill="url(#paint22_linear)"/><path d="M85.57 144.125c0-.53.18-.984.541-1.363.38-.379.856-.568 1.426-.568.552 0 1.008.189 1.37.568.38.379.57.833.57 1.363 0 .531-.18.976-.542 1.335-.361.36-.827.54-1.398.54-.57 0-1.046-.189-1.426-.568a1.776 1.776 0 01-.542-1.307z" fill="url(#paint23_linear)"/><path d="M57.046 1.931c0-.53.18-.984.542-1.363.38-.379.856-.568 1.426-.568.552 0 1.008.19 1.37.568.38.379.57.833.57 1.363s-.18.976-.542 1.335c-.361.36-.827.54-1.398.54-.57 0-1.046-.19-1.426-.568a1.776 1.776 0 01-.542-1.307z" fill="url(#paint24_linear)"/><path d="M57.046 14.858c0-.53.18-.985.542-1.363.38-.379.856-.568 1.426-.568.552 0 1.008.19 1.37.568.38.379.57.833.57 1.363s-.18.975-.542 1.335c-.361.36-.827.54-1.398.54-.57 0-1.046-.19-1.426-.568a1.776 1.776 0 01-.542-1.307z" fill="url(#paint25_linear)"/><path d="M57.046 27.785c0-.53.18-.985.542-1.363.38-.38.856-.569 1.426-.569.552 0 1.008.19 1.37.569.38.378.57.833.57 1.363s-.18.975-.542 1.335c-.361.36-.827.54-1.398.54-.57 0-1.046-.19-1.426-.569a1.776 1.776 0 01-.542-1.306z" fill="url(#paint26_linear)"/><path d="M57.046 40.712c0-.53.18-.985.542-1.364.38-.379.856-.568 1.426-.568.552 0 1.008.19 1.37.568.38.379.57.833.57 1.364 0 .53-.18.975-.542 1.334-.361.36-.827.54-1.398.54-.57 0-1.046-.19-1.426-.568a1.776 1.776 0 01-.542-1.306z" fill="url(#paint27_linear)"/><path d="M57.046 53.638c0-.53.18-.984.542-1.363.38-.379.856-.568 1.426-.568.552 0 1.008.19 1.37.568.38.379.57.833.57 1.363s-.18.976-.542 1.335c-.361.36-.827.54-1.398.54-.57 0-1.046-.19-1.426-.568a1.776 1.776 0 01-.542-1.307z" fill="url(#paint28_linear)"/><path d="M57.046 66.565c0-.53.18-.985.542-1.363.38-.379.856-.568 1.426-.568.552 0 1.008.189 1.37.568.38.378.57.833.57 1.363s-.18.975-.542 1.335c-.361.36-.827.54-1.398.54-.57 0-1.046-.19-1.426-.568a1.776 1.776 0 01-.542-1.307z" fill="url(#paint29_linear)"/><path d="M57.046 79.492c0-.53.18-.985.542-1.364.38-.378.856-.568 1.426-.568.552 0 1.008.19 1.37.568.38.38.57.834.57 1.364 0 .53-.18.975-.542 1.335-.361.36-.827.54-1.398.54-.57 0-1.046-.19-1.426-.569a1.776 1.776 0 01-.542-1.306z" fill="url(#paint30_linear)"/><path d="M57.046 92.418c0-.53.18-.984.542-1.363.38-.379.856-.568 1.426-.568.552 0 1.008.19 1.37.568.38.379.57.833.57 1.363s-.18.976-.542 1.335c-.361.36-.827.54-1.398.54-.57 0-1.046-.19-1.426-.568a1.776 1.776 0 01-.542-1.306z" fill="url(#paint31_linear)"/><path d="M57.046 105.345c0-.53.18-.984.542-1.363.38-.379.856-.568 1.426-.568.552 0 1.008.189 1.37.568.38.379.57.833.57 1.363s-.18.975-.542 1.335c-.361.36-.827.54-1.398.54-.57 0-1.046-.19-1.426-.568a1.778 1.778 0 01-.542-1.307z" fill="url(#paint32_linear)"/><path d="M57.046 118.272c0-.53.18-.985.542-1.363.38-.379.856-.568 1.426-.568.552 0 1.008.189 1.37.568.38.378.57.833.57 1.363s-.18.975-.542 1.335c-.361.36-.827.54-1.398.54-.57 0-1.046-.19-1.426-.569a1.774 1.774 0 01-.542-1.306z" fill="url(#paint33_linear)"/><path d="M57.046 131.199c0-.531.18-.985.542-1.364.38-.378.856-.568 1.426-.568.552 0 1.008.19 1.37.568.38.379.57.833.57 1.364 0 .53-.18.975-.542 1.335-.361.359-.827.539-1.398.539-.57 0-1.046-.189-1.426-.568a1.775 1.775 0 01-.542-1.306z" fill="url(#paint34_linear)"/><path d="M57.046 144.125c0-.53.18-.984.542-1.363.38-.379.856-.568 1.426-.568.552 0 1.008.189 1.37.568.38.379.57.833.57 1.363 0 .531-.18.976-.542 1.335-.361.36-.827.54-1.398.54-.57 0-1.046-.189-1.426-.568a1.776 1.776 0 01-.542-1.307z" fill="url(#paint35_linear)"/><path d="M28.523 1.931c0-.53.18-.984.542-1.363.38-.379.856-.568 1.426-.568.552 0 1.008.19 1.37.568.38.379.57.833.57 1.363s-.18.976-.542 1.335c-.361.36-.827.54-1.398.54-.57 0-1.046-.19-1.426-.568a1.776 1.776 0 01-.542-1.307z" fill="url(#paint36_linear)"/><path d="M28.523 14.858c0-.53.18-.985.542-1.363.38-.379.856-.568 1.426-.568.552 0 1.008.19 1.37.568.38.379.57.833.57 1.363s-.18.975-.542 1.335c-.361.36-.827.54-1.398.54-.57 0-1.046-.19-1.426-.568a1.776 1.776 0 01-.542-1.307z" fill="url(#paint37_linear)"/><path d="M28.523 27.785c0-.53.18-.985.542-1.363.38-.38.856-.569 1.426-.569.552 0 1.008.19 1.37.569.38.378.57.833.57 1.363s-.18.975-.542 1.335c-.361.36-.827.54-1.398.54-.57 0-1.046-.19-1.426-.569a1.776 1.776 0 01-.542-1.306z" fill="url(#paint38_linear)"/><path d="M28.523 40.712c0-.53.18-.985.542-1.364.38-.379.856-.568 1.426-.568.552 0 1.008.19 1.37.568.38.379.57.833.57 1.364 0 .53-.18.975-.542 1.334-.361.36-.827.54-1.398.54-.57 0-1.046-.19-1.426-.568a1.776 1.776 0 01-.542-1.306z" fill="url(#paint39_linear)"/><path d="M28.523 53.638c0-.53.18-.984.542-1.363.38-.379.856-.568 1.426-.568.552 0 1.008.19 1.37.568.38.379.57.833.57 1.363s-.18.976-.542 1.335c-.361.36-.827.54-1.398.54-.57 0-1.046-.19-1.426-.568a1.776 1.776 0 01-.542-1.307z" fill="url(#paint40_linear)"/><path d="M28.523 66.565c0-.53.18-.985.542-1.363.38-.379.856-.568 1.426-.568.552 0 1.008.189 1.37.568.38.378.57.833.57 1.363s-.18.975-.542 1.335c-.361.36-.827.54-1.398.54-.57 0-1.046-.19-1.426-.568a1.776 1.776 0 01-.542-1.307z" fill="url(#paint41_linear)"/><path d="M28.523 79.492c0-.53.18-.985.542-1.364.38-.378.856-.568 1.426-.568.552 0 1.008.19 1.37.568.38.38.57.834.57 1.364 0 .53-.18.975-.542 1.335-.361.36-.827.54-1.398.54-.57 0-1.046-.19-1.426-.569a1.776 1.776 0 01-.542-1.306z" fill="url(#paint42_linear)"/><path d="M28.523 92.418c0-.53.18-.984.542-1.363.38-.379.856-.568 1.426-.568.552 0 1.008.19 1.37.568.38.379.57.833.57 1.363s-.18.976-.542 1.335c-.361.36-.827.54-1.398.54-.57 0-1.046-.19-1.426-.568a1.776 1.776 0 01-.542-1.306z" fill="url(#paint43_linear)"/><path d="M28.523 105.345c0-.53.18-.984.542-1.363.38-.379.856-.568 1.426-.568.552 0 1.008.189 1.37.568.38.379.57.833.57 1.363s-.18.975-.542 1.335c-.361.36-.827.54-1.398.54-.57 0-1.046-.19-1.426-.568a1.778 1.778 0 01-.542-1.307z" fill="url(#paint44_linear)"/><path d="M28.523 118.272c0-.53.18-.985.542-1.363.38-.379.856-.568 1.426-.568.552 0 1.008.189 1.37.568.38.378.57.833.57 1.363s-.18.975-.542 1.335c-.361.36-.827.54-1.398.54-.57 0-1.046-.19-1.426-.569a1.774 1.774 0 01-.542-1.306z" fill="url(#paint45_linear)"/><path d="M28.523 131.199c0-.531.18-.985.542-1.364.38-.378.856-.568 1.426-.568.552 0 1.008.19 1.37.568.38.379.57.833.57 1.364 0 .53-.18.975-.542 1.335-.361.359-.827.539-1.398.539-.57 0-1.046-.189-1.426-.568a1.775 1.775 0 01-.542-1.306z" fill="url(#paint46_linear)"/><path d="M28.523 144.125c0-.53.18-.984.542-1.363.38-.379.856-.568 1.426-.568.552 0 1.008.189 1.37.568.38.379.57.833.57 1.363 0 .531-.18.976-.542 1.335-.361.36-.827.54-1.398.54-.57 0-1.046-.189-1.426-.568a1.776 1.776 0 01-.542-1.307z" fill="url(#paint47_linear)"/><path d="M0 1.931C0 1.401.18.947.542.568.922.19 1.398 0 1.968 0c.552 0 1.008.19 1.37.568.38.379.57.833.57 1.363s-.181.976-.542 1.335c-.362.36-.827.54-1.398.54-.57 0-1.046-.19-1.426-.568A1.776 1.776 0 010 1.931z" fill="url(#paint48_linear)"/><path d="M0 14.858c0-.53.18-.985.542-1.363.38-.379.856-.568 1.426-.568.552 0 1.008.19 1.37.568.38.379.57.833.57 1.363s-.181.975-.542 1.335c-.362.36-.827.54-1.398.54-.57 0-1.046-.19-1.426-.568A1.776 1.776 0 010 14.858z" fill="url(#paint49_linear)"/><path d="M0 27.785c0-.53.18-.985.542-1.363.38-.38.856-.569 1.426-.569.552 0 1.008.19 1.37.569.38.378.57.833.57 1.363s-.181.975-.542 1.335c-.362.36-.827.54-1.398.54-.57 0-1.046-.19-1.426-.569A1.776 1.776 0 010 27.785z" fill="url(#paint50_linear)"/><path d="M0 40.712c0-.53.18-.985.542-1.364.38-.379.856-.568 1.426-.568.552 0 1.008.19 1.37.568.38.379.57.833.57 1.364 0 .53-.181.975-.542 1.334-.362.36-.827.54-1.398.54-.57 0-1.046-.19-1.426-.568A1.776 1.776 0 010 40.712z" fill="url(#paint51_linear)"/><path d="M0 53.638c0-.53.18-.984.542-1.363.38-.379.856-.568 1.426-.568.552 0 1.008.19 1.37.568.38.379.57.833.57 1.363s-.181.976-.542 1.335c-.362.36-.827.54-1.398.54-.57 0-1.046-.19-1.426-.568A1.776 1.776 0 010 53.638z" fill="url(#paint52_linear)"/><path d="M0 66.565c0-.53.18-.985.542-1.363.38-.379.856-.568 1.426-.568.552 0 1.008.189 1.37.568.38.378.57.833.57 1.363s-.181.975-.542 1.335c-.362.36-.827.54-1.398.54-.57 0-1.046-.19-1.426-.568A1.776 1.776 0 010 66.565z" fill="url(#paint53_linear)"/><path d="M0 79.492c0-.53.18-.985.542-1.364.38-.378.856-.568 1.426-.568.552 0 1.008.19 1.37.568.38.38.57.834.57 1.364 0 .53-.181.975-.542 1.335-.362.36-.827.54-1.398.54-.57 0-1.046-.19-1.426-.569A1.776 1.776 0 010 79.492z" fill="url(#paint54_linear)"/><path d="M0 92.418c0-.53.18-.984.542-1.363.38-.379.856-.568 1.426-.568.552 0 1.008.19 1.37.568.38.379.57.833.57 1.363s-.181.976-.542 1.335c-.362.36-.827.54-1.398.54-.57 0-1.046-.19-1.426-.568A1.776 1.776 0 010 92.419z" fill="url(#paint55_linear)"/><path d="M0 105.345c0-.53.18-.984.542-1.363.38-.379.856-.568 1.426-.568.552 0 1.008.189 1.37.568.38.379.57.833.57 1.363s-.181.975-.542 1.335c-.362.36-.827.54-1.398.54-.57 0-1.046-.19-1.426-.568A1.778 1.778 0 010 105.345z" fill="url(#paint56_linear)"/><path d="M0 118.272c0-.53.18-.985.542-1.363.38-.379.856-.568 1.426-.568.552 0 1.008.189 1.37.568.38.378.57.833.57 1.363s-.181.975-.542 1.335c-.362.36-.827.54-1.398.54-.57 0-1.046-.19-1.426-.569A1.774 1.774 0 010 118.272z" fill="url(#paint57_linear)"/><path d="M0 131.199c0-.531.18-.985.542-1.364.38-.378.856-.568 1.426-.568.552 0 1.008.19 1.37.568.38.379.57.833.57 1.364 0 .53-.181.975-.542 1.335-.362.359-.827.539-1.398.539-.57 0-1.046-.189-1.426-.568A1.775 1.775 0 010 131.199z" fill="url(#paint58_linear)"/><path d="M0 144.125c0-.53.18-.984.542-1.363.38-.379.856-.568 1.426-.568.552 0 1.008.189 1.37.568.38.379.57.833.57 1.363 0 .531-.181.976-.542 1.335-.362.36-.827.54-1.398.54-.57 0-1.046-.189-1.426-.568A1.776 1.776 0 010 144.125z" fill="url(#paint59_linear)"/><defs><linearGradient id="paint1_linear" x1="-42.831" y1="152.121" x2="-.45" y2="44.822" gradientUnits="userSpaceOnUse"><stop stop-color="#C4C4C4"/><stop offset="1" stop-color="#DAD6CF"/></linearGradient><linearGradient id="paint30_linear" x1="-42.831" y1="152.121" x2="-.45" y2="44.822" gradientUnits="userSpaceOnUse"><stop stop-color="#C4C4C4"/><stop offset="1" stop-color="#DAD6CF"/></linearGradient><linearGradient id="paint2_linear" x1="-42.831" y1="152.121" x2="-.45" y2="44.822" gradientUnits="userSpaceOnUse"><stop stop-color="#C4C4C4"/><stop offset="1" stop-color="#DAD6CF"/></linearGradient><linearGradient id="paint3_linear" x1="-42.831" y1="152.121" x2="-.45" y2="44.822" gradientUnits="userSpaceOnUse"><stop stop-color="#C4C4C4"/><stop offset="1" stop-color="#DAD6CF"/></linearGradient><linearGradient id="paint4_linear" x1="-42.831" y1="152.121" x2="-.45" y2="44.822" gradientUnits="userSpaceOnUse"><stop stop-color="#C4C4C4"/><stop offset="1" stop-color="#DAD6CF"/></linearGradient><linearGradient id="paint5_linear" x1="-42.831" y1="152.121" x2="-.45" y2="44.822" gradientUnits="userSpaceOnUse"><stop stop-color="#C4C4C4"/><stop offset="1" stop-color="#DAD6CF"/></linearGradient><linearGradient id="paint6_linear" x1="-42.831" y1="152.121" x2="-.45" y2="44.822" gradientUnits="userSpaceOnUse"><stop stop-color="#C4C4C4"/><stop offset="1" stop-color="#DAD6CF"/></linearGradient><linearGradient id="paint7_linear" x1="-42.831" y1="152.121" x2="-.45" y2="44.822" gradientUnits="userSpaceOnUse"><stop stop-color="#C4C4C4"/><stop offset="1" stop-color="#DAD6CF"/></linearGradient><linearGradient id="paint8_linear" x1="-42.831" y1="152.121" x2="-.45" y2="44.822" gradientUnits="userSpaceOnUse"><stop stop-color="#C4C4C4"/><stop offset="1" stop-color="#DAD6CF"/></linearGradient><linearGradient id="paint9_linear" x1="-42.831" y1="152.121" x2="-.45" y2="44.822" gradientUnits="userSpaceOnUse"><stop stop-color="#C4C4C4"/><stop offset="1" stop-color="#DAD6CF"/></linearGradient><linearGradient id="paint10_linear" x1="-42.831" y1="152.121" x2="-.45" y2="44.822" gradientUnits="userSpaceOnUse"><stop stop-color="#C4C4C4"/><stop offset="1" stop-color="#DAD6CF"/></linearGradient><linearGradient id="paint11_linear" x1="-42.831" y1="152.121" x2="-.45" y2="44.822" gradientUnits="userSpaceOnUse"><stop stop-color="#C4C4C4"/><stop offset="1" stop-color="#DAD6CF"/></linearGradient><linearGradient id="paint12_linear" x1="-42.831" y1="152.121" x2="-.45" y2="44.822" gradientUnits="userSpaceOnUse"><stop stop-color="#C4C4C4"/><stop offset="1" stop-color="#DAD6CF"/></linearGradient><linearGradient id="paint13_linear" x1="-42.831" y1="152.121" x2="-.45" y2="44.822" gradientUnits="userSpaceOnUse"><stop stop-color="#C4C4C4"/><stop offset="1" stop-color="#DAD6CF"/></linearGradient><linearGradient id="paint14_linear" x1="-42.831" y1="152.121" x2="-.45" y2="44.822" gradientUnits="userSpaceOnUse"><stop stop-color="#C4C4C4"/><stop offset="1" stop-color="#DAD6CF"/></linearGradient><linearGradient id="paint15_linear" x1="-42.831" y1="152.121" x2="-.45" y2="44.822" gradientUnits="userSpaceOnUse"><stop stop-color="#C4C4C4"/><stop offset="1" stop-color="#DAD6CF"/></linearGradient><linearGradient id="paint16_linear" x1="-42.831" y1="152.121" x2="-.45" y2="44.822" gradientUnits="userSpaceOnUse"><stop stop-color="#C4C4C4"/><stop offset="1" stop-color="#DAD6CF"/></linearGradient><linearGradient id="paint17_linear" x1="-42.831" y1="152.121" x2="-.45" y2="44.822" gradientUnits="userSpaceOnUse"><stop stop-color="#C4C4C4"/><stop offset="1" stop-color="#DAD6CF"/></linearGradient><linearGradient id="paint18_linear" x1="-42.831" y1="152.121" x2="-.45" y2="44.822" gradientUnits="userSpaceOnUse"><stop stop-color="#C4C4C4"/><stop offset="1" stop-color="#DAD6CF"/></linearGradient><linearGradient id="paint19_linear" x1="-42.831" y1="152.121" x2="-.45" y2="44.822" gradientUnits="userSpaceOnUse"><stop stop-color="#C4C4C4"/><stop offset="1" stop-color="#DAD6CF"/></linearGradient><linearGradient id="paint20_linear" x1="-42.831" y1="152.121" x2="-.45" y2="44.822" gradientUnits="userSpaceOnUse"><stop stop-color="#C4C4C4"/><stop offset="1" stop-color="#DAD6CF"/></linearGradient><linearGradient id="paint21_linear" x1="-42.831" y1="152.121" x2="-.45" y2="44.822" gradientUnits="userSpaceOnUse"><stop stop-color="#C4C4C4"/><stop offset="1" stop-color="#DAD6CF"/></linearGradient><linearGradient id="paint22_linear" x1="-42.831" y1="152.121" x2="-.45" y2="44.822" gradientUnits="userSpaceOnUse"><stop stop-color="#C4C4C4"/><stop offset="1" stop-color="#DAD6CF"/></linearGradient><linearGradient id="paint23_linear" x1="-42.831" y1="152.121" x2="-.45" y2="44.822" gradientUnits="userSpaceOnUse"><stop stop-color="#C4C4C4"/><stop offset="1" stop-color="#DAD6CF"/></linearGradient><linearGradient id="paint24_linear" x1="-42.831" y1="152.121" x2="-.45" y2="44.822" gradientUnits="userSpaceOnUse"><stop stop-color="#C4C4C4"/><stop offset="1" stop-color="#DAD6CF"/></linearGradient><linearGradient id="paint25_linear" x1="-42.831" y1="152.121" x2="-.45" y2="44.822" gradientUnits="userSpaceOnUse"><stop stop-color="#C4C4C4"/><stop offset="1" stop-color="#DAD6CF"/></linearGradient><linearGradient id="paint26_linear" x1="-42.831" y1="152.121" x2="-.45" y2="44.822" gradientUnits="userSpaceOnUse"><stop stop-color="#C4C4C4"/><stop offset="1" stop-color="#DAD6CF"/></linearGradient><linearGradient id="paint27_linear" x1="-42.831" y1="152.121" x2="-.45" y2="44.822" gradientUnits="userSpaceOnUse"><stop stop-color="#C4C4C4"/><stop offset="1" stop-color="#DAD6CF"/></linearGradient><linearGradient id="paint28_linear" x1="-42.831" y1="152.121" x2="-.45" y2="44.822" gradientUnits="userSpaceOnUse"><stop stop-color="#C4C4C4"/><stop offset="1" stop-color="#DAD6CF"/></linearGradient><linearGradient id="paint29_linear" x1="-42.831" y1="152.121" x2="-.45" y2="44.822" gradientUnits="userSpaceOnUse"><stop stop-color="#C4C4C4"/><stop offset="1" stop-color="#DAD6CF"/></linearGradient><linearGradient id="paint0_linear" x1="-42.831" y1="152.121" x2="-.45" y2="44.822" gradientUnits="userSpaceOnUse"><stop stop-color="#C4C4C4"/><stop offset="1" stop-color="#DAD6CF"/></linearGradient><linearGradient id="paint31_linear" x1="-42.831" y1="152.121" x2="-.45" y2="44.822" gradientUnits="userSpaceOnUse"><stop stop-color="#C4C4C4"/><stop offset="1" stop-color="#DAD6CF"/></linearGradient><linearGradient id="paint32_linear" x1="-42.831" y1="152.121" x2="-.45" y2="44.822" gradientUnits="userSpaceOnUse"><stop stop-color="#C4C4C4"/><stop offset="1" stop-color="#DAD6CF"/></linearGradient><linearGradient id="paint33_linear" x1="-42.831" y1="152.121" x2="-.45" y2="44.822" gradientUnits="userSpaceOnUse"><stop stop-color="#C4C4C4"/><stop offset="1" stop-color="#DAD6CF"/></linearGradient><linearGradient id="paint34_linear" x1="-42.831" y1="152.121" x2="-.45" y2="44.822" gradientUnits="userSpaceOnUse"><stop stop-color="#C4C4C4"/><stop offset="1" stop-color="#DAD6CF"/></linearGradient><linearGradient id="paint35_linear" x1="-42.831" y1="152.121" x2="-.45" y2="44.822" gradientUnits="userSpaceOnUse"><stop stop-color="#C4C4C4"/><stop offset="1" stop-color="#DAD6CF"/></linearGradient><linearGradient id="paint36_linear" x1="-42.831" y1="152.121" x2="-.45" y2="44.822" gradientUnits="userSpaceOnUse"><stop stop-color="#C4C4C4"/><stop offset="1" stop-color="#DAD6CF"/></linearGradient><linearGradient id="paint37_linear" x1="-42.831" y1="152.121" x2="-.45" y2="44.822" gradientUnits="userSpaceOnUse"><stop stop-color="#C4C4C4"/><stop offset="1" stop-color="#DAD6CF"/></linearGradient><linearGradient id="paint38_linear" x1="-42.831" y1="152.121" x2="-.45" y2="44.822" gradientUnits="userSpaceOnUse"><stop stop-color="#C4C4C4"/><stop offset="1" stop-color="#DAD6CF"/></linearGradient><linearGradient id="paint39_linear" x1="-42.831" y1="152.121" x2="-.45" y2="44.822" gradientUnits="userSpaceOnUse"><stop stop-color="#C4C4C4"/><stop offset="1" stop-color="#DAD6CF"/></linearGradient><linearGradient id="paint40_linear" x1="-42.831" y1="152.121" x2="-.45" y2="44.822" gradientUnits="userSpaceOnUse"><stop stop-color="#C4C4C4"/><stop offset="1" stop-color="#DAD6CF"/></linearGradient><linearGradient id="paint41_linear" x1="-42.831" y1="152.121" x2="-.45" y2="44.822" gradientUnits="userSpaceOnUse"><stop stop-color="#C4C4C4"/><stop offset="1" stop-color="#DAD6CF"/></linearGradient><linearGradient id="paint42_linear" x1="-42.831" y1="152.121" x2="-.45" y2="44.822" gradientUnits="userSpaceOnUse"><stop stop-color="#C4C4C4"/><stop offset="1" stop-color="#DAD6CF"/></linearGradient><linearGradient id="paint43_linear" x1="-42.831" y1="152.121" x2="-.45" y2="44.822" gradientUnits="userSpaceOnUse"><stop stop-color="#C4C4C4"/><stop offset="1" stop-color="#DAD6CF"/></linearGradient><linearGradient id="paint44_linear" x1="-42.831" y1="152.121" x2="-.45" y2="44.822" gradientUnits="userSpaceOnUse"><stop stop-color="#C4C4C4"/><stop offset="1" stop-color="#DAD6CF"/></linearGradient><linearGradient id="paint45_linear" x1="-42.831" y1="152.121" x2="-.45" y2="44.822" gradientUnits="userSpaceOnUse"><stop stop-color="#C4C4C4"/><stop offset="1" stop-color="#DAD6CF"/></linearGradient><linearGradient id="paint46_linear" x1="-42.831" y1="152.121" x2="-.45" y2="44.822" gradientUnits="userSpaceOnUse"><stop stop-color="#C4C4C4"/><stop offset="1" stop-color="#DAD6CF"/></linearGradient><linearGradient id="paint47_linear" x1="-42.831" y1="152.121" x2="-.45" y2="44.822" gradientUnits="userSpaceOnUse"><stop stop-color="#C4C4C4"/><stop offset="1" stop-color="#DAD6CF"/></linearGradient><linearGradient id="paint48_linear" x1="-42.831" y1="152.121" x2="-.45" y2="44.822" gradientUnits="userSpaceOnUse"><stop stop-color="#C4C4C4"/><stop offset="1" stop-color="#DAD6CF"/></linearGradient><linearGradient id="paint49_linear" x1="-42.831" y1="152.121" x2="-.45" y2="44.822" gradientUnits="userSpaceOnUse"><stop stop-color="#C4C4C4"/><stop offset="1" stop-color="#DAD6CF"/></linearGradient><linearGradient id="paint50_linear" x1="-42.831" y1="152.121" x2="-.45" y2="44.822" gradientUnits="userSpaceOnUse"><stop stop-color="#C4C4C4"/><stop offset="1" stop-color="#DAD6CF"/></linearGradient><linearGradient id="paint51_linear" x1="-42.831" y1="152.121" x2="-.45" y2="44.822" gradientUnits="userSpaceOnUse"><stop stop-color="#C4C4C4"/><stop offset="1" stop-color="#DAD6CF"/></linearGradient><linearGradient id="paint52_linear" x1="-42.831" y1="152.121" x2="-.45" y2="44.822" gradientUnits="userSpaceOnUse"><stop stop-color="#C4C4C4"/><stop offset="1" stop-color="#DAD6CF"/></linearGradient><linearGradient id="paint53_linear" x1="-42.831" y1="152.121" x2="-.45" y2="44.822" gradientUnits="userSpaceOnUse"><stop stop-color="#C4C4C4"/><stop offset="1" stop-color="#DAD6CF"/></linearGradient><linearGradient id="paint54_linear" x1="-42.831" y1="152.121" x2="-.45" y2="44.822" gradientUnits="userSpaceOnUse"><stop stop-color="#C4C4C4"/><stop offset="1" stop-color="#DAD6CF"/></linearGradient><linearGradient id="paint55_linear" x1="-42.831" y1="152.121" x2="-.45" y2="44.822" gradientUnits="userSpaceOnUse"><stop stop-color="#C4C4C4"/><stop offset="1" stop-color="#DAD6CF"/></linearGradient><linearGradient id="paint56_linear" x1="-42.831" y1="152.121" x2="-.45" y2="44.822" gradientUnits="userSpaceOnUse"><stop stop-color="#C4C4C4"/><stop offset="1" stop-color="#DAD6CF"/></linearGradient><linearGradient id="paint57_linear" x1="-42.831" y1="152.121" x2="-.45" y2="44.822" gradientUnits="userSpaceOnUse"><stop stop-color="#C4C4C4"/><stop offset="1" stop-color="#DAD6CF"/></linearGradient><linearGradient id="paint58_linear" x1="-42.831" y1="152.121" x2="-.45" y2="44.822" gradientUnits="userSpaceOnUse"><stop stop-color="#C4C4C4"/><stop offset="1" stop-color="#DAD6CF"/></linearGradient><linearGradient id="paint59_linear" x1="-42.831" y1="152.121" x2="-.45" y2="44.822" gradientUnits="userSpaceOnUse"><stop stop-color="#C4C4C4"/><stop offset="1" stop-color="#DAD6CF"/></linearGradient></defs></svg>