<svg width="20" height="22" fill="none" xmlns="http://www.w3.org/2000/svg"><path d="M7.15 6.14c.18-.18.49-.18.67 0l1.35 1.34c.19.19.19.49 0 .67-.2.19-.27.53-.17.78 0 0 .16.57.83 1.24.67.67 1.24.83 1.24.83.24.1.59.03.77-.16.19-.19.49-.19.67 0l1.35 1.34c.18.18.18.48 0 .67l-.67.67c-.56.56-1.53.64-2.16.17 0 0-.88-.53-2.56-2.2C6.8 9.82 6.3 8.97 6.3 8.97c-.46-.64-.38-1.6.17-2.16l.68-.67zM2 10c0 2.31.98 4.45 2.67 5.96.21.19.33.46.33.75v2.45l1.96-1.34c.24-.16.55-.21.83-.13.72.21 1.46.31 2.21.31 4.42 0 8-3.58 8-8s-3.58-8-8-8-8 3.58-8 8zm1 11l-.01-3.86A10.03 10.03 0 010 10C0 4.48 4.48 0 10 0s10 4.48 10 10-4.48 10-10 10c-.78 0-1.56-.09-2.31-.27-.17.11-3.14 2.1-3.14 2.1C3.89 22.28 3 21.8 3 21z" fill="#EC008C"/></svg>